  0
SECTION
  2
HEADER
  9
$ACADVER
  1
AC1009
  9
$DWGCODEPAGE
  3
ansi_1252
  9
$INSBASE
 10
0.0
 20
0.0
 30
0.0
  9
$EXTMIN
 10
-61.5
 20
-916.3949402192782
 30
0.0
  9
$EXTMAX
 10
472.6810171990176
 20
504.9999999999939
 30
0.0
  9
$LIMMIN
 10
0.0
 20
0.0
  9
$LIMMAX
 10
12.0
 20
9.0
  9
$ORTHOMODE
 70
     0
  9
$REGENMODE
 70
     1
  9
$FILLMODE
 70
     1
  9
$QTEXTMODE
 70
     0
  9
$MIRRTEXT
 70
     1
  9
$DRAGMODE
 70
     2
  9
$LTSCALE
 40
1.0
  9
$OSMODE
 70
    37
  9
$ATTMODE
 70
     1
  9
$TEXTSIZE
 40
0.2
  9
$TRACEWID
 40
0.05
  9
$TEXTSTYLE
  7
STANDARD
  9
$CLAYER
  8
0
  9
$CELTYPE
  6
BYLAYER
  9
$CECOLOR
 62
   256
  9
$DIMSCALE
 40
1.0
  9
$DIMASZ
 40
0.18
  9
$DIMEXO
 40
0.0625
  9
$DIMDLI
 40
0.38
  9
$DIMRND
 40
0.0
  9
$DIMDLE
 40
0.0
  9
$DIMEXE
 40
0.18
  9
$DIMTP
 40
0.0
  9
$DIMTM
 40
0.0
  9
$DIMTXT
 40
0.18
  9
$DIMCEN
 40
0.09
  9
$DIMTSZ
 40
0.0
  9
$DIMTOL
 70
     0
  9
$DIMLIM
 70
     0
  9
$DIMTIH
 70
     1
  9
$DIMTOH
 70
     1
  9
$DIMSE1
 70
     0
  9
$DIMSE2
 70
     0
  9
$DIMTAD
 70
     0
  9
$DIMZIN
 70
     0
  9
$DIMBLK
  1

  9
$DIMASO
 70
     1
  9
$DIMSHO
 70
     1
  9
$DIMPOST
  1

  9
$DIMAPOST
  1

  9
$DIMALT
 70
     0
  9
$DIMALTD
 70
     2
  9
$DIMALTF
 40
25.4
  9
$DIMLFAC
 40
1.0
  9
$DIMTOFL
 70
     0
  9
$DIMTVP
 40
0.0
  9
$DIMTIX
 70
     0
  9
$DIMSOXD
 70
     0
  9
$DIMSAH
 70
     0
  9
$DIMBLK1
  1

  9
$DIMBLK2
  1

  9
$DIMSTYLE
  2
STANDARD
  9
$DIMCLRD
 70
     0
  9
$DIMCLRE
 70
     0
  9
$DIMCLRT
 70
     0
  9
$DIMTFAC
 40
1.0
  9
$DIMGAP
 40
0.09
  9
$LUNITS
 70
     2
  9
$LUPREC
 70
     4
  9
$SKETCHINC
 40
0.1
  9
$FILLETRAD
 40
0.5
  9
$AUNITS
 70
     0
  9
$AUPREC
 70
     0
  9
$MENU
  1
.
  9
$ELEVATION
 40
0.0
  9
$PELEVATION
 40
0.0
  9
$THICKNESS
 40
0.0
  9
$LIMCHECK
 70
     0
  9
$CHAMFERA
 40
0.5
  9
$CHAMFERB
 40
0.5
  9
$SKPOLY
 70
     0
  9
$TDCREATE
 40
2454910.5
  9
$TDUPDATE
 40
2458791.620162037
  9
$TDINDWG
 40
0.0000000116
  9
$TDUSRTIMER
 40
0.0000000116
  9
$USRTIMER
 70
     1
  9
$ANGBASE
 50
0.0
  9
$ANGDIR
 70
     0
  9
$PDMODE
 70
     0
  9
$PDSIZE
 40
0.0
  9
$PLINEWID
 40
0.0
  9
$COORDS
 70
     1
  9
$SPLFRAME
 70
     0
  9
$SPLINETYPE
 70
     6
  9
$SPLINESEGS
 70
     8
  9
$ATTDIA
 70
     0
  9
$ATTREQ
 70
     1
  9
$HANDLING
 70
     1
  9
$HANDSEED
  5
48A
  9
$SURFTAB1
 70
     6
  9
$SURFTAB2
 70
     6
  9
$SURFTYPE
 70
     6
  9
$SURFU
 70
     6
  9
$SURFV
 70
     6
  9
$UCSNAME
  2

  9
$UCSORG
 10
0.0
 20
0.0
 30
0.0
  9
$UCSXDIR
 10
1.0
 20
0.0
 30
0.0
  9
$UCSYDIR
 10
0.0
 20
1.0
 30
0.0
  9
$PUCSNAME
  2

  9
$PUCSORG
 10
0.0
 20
0.0
 30
0.0
  9
$PUCSXDIR
 10
1.0
 20
0.0
 30
0.0
  9
$PUCSYDIR
 10
0.0
 20
1.0
 30
0.0
  9
$USERI1
 70
     0
  9
$USERI2
 70
     0
  9
$USERI3
 70
     0
  9
$USERI4
 70
     0
  9
$USERI5
 70
     0
  9
$USERR1
 40
0.0
  9
$USERR2
 40
0.0
  9
$USERR3
 40
0.0
  9
$USERR4
 40
0.0
  9
$USERR5
 40
0.0
  9
$WORLDVIEW
 70
     1
  9
$SHADEDGE
 70
     3
  9
$SHADEDIF
 70
    70
  9
$TILEMODE
 70
     1
  9
$MAXACTVP
 70
    64
  9
$PLIMCHECK
 70
     0
  9
$PEXTMIN
 10
1.000000000000000E+20
 20
1.000000000000000E+20
 30
1.000000000000000E+20
  9
$PEXTMAX
 10
-1.000000000000000E+20
 20
-1.000000000000000E+20
 30
-1.000000000000000E+20
  9
$PLIMMIN
 10
0.0
 20
0.0
  9
$PLIMMAX
 10
12.0
 20
9.0
  9
$UNITMODE
 70
     0
  9
$VISRETAIN
 70
     1
  9
$PLINEGEN
 70
     0
  9
$PSLTSCALE
 70
     1
  0
ENDSEC
  0
SECTION
  2
TABLES
  0
TABLE
  2
VPORT
 70
     1
  0
VPORT
  2
*ACTIVE
 70
     0
 10
0.0
 20
0.0
 11
1.0
 21
1.0
 12
10.42990654205607
 22
4.5
 13
0.0
 23
0.0
 14
0.5
 24
0.5
 15
0.5
 25
0.5
 16
0.0
 26
0.0
 36
1.0
 17
0.0
 27
0.0
 37
0.0
 40
9.0
 41
1.972972972850329
 42
50.0
 43
0.0
 44
0.0
 50
0.0
 51
0.0
 71
     0
 72
   100
 73
     1
 74
     3
 75
     0
 76
     0
 77
     0
 78
     0
  0
ENDTAB
  0
TABLE
  2
LTYPE
 70
     2
  0
LTYPE
  2
CONTINUOUS
 70
     0
  3
Solid line
 72
    65
 73
     0
 40
0.0
  0
LTYPE
  2
CONTINUOUS2
 70
     0
  3
Solid Line
 72
    65
 73
     0
 40
0.0
  0
ENDTAB
  0
TABLE
  2
LAYER
 70
     2
  0
LAYER
  2
0
 70
     0
 62
     7
  6
CONTINUOUS
  0
LAYER
  2
LAYER_1
 70
     0
 62
    18
  6
CONTINUOUS
  0
ENDTAB
  0
TABLE
  2
STYLE
 70
     1
  0
STYLE
  2
STANDARD
 70
     0
 40
0.0
 41
1.0
 50
0.0
 71
     0
 42
0.2
  3
txt
  4

  0
ENDTAB
  0
TABLE
  2
VIEW
 70
     0
  0
ENDTAB
  0
TABLE
  2
UCS
 70
     0
  0
ENDTAB
  0
TABLE
  2
APPID
 70
     1
  0
APPID
  2
ACAD
 70
     0
  0
ENDTAB
  0
TABLE
  2
DIMSTYLE
 70
     1
  0
DIMSTYLE
  2
STANDARD
 70
     0
  3

  4

  5

  6

  7

 40
1.0
 41
0.18
 42
0.0625
 43
0.38
 44
0.18
 45
0.0
 46
0.0
 47
0.0
 48
0.0
140
0.18
141
0.09
142
0.0
143
25.4
144
1.0
145
0.0
146
1.0
147
0.09
 71
     0
 72
     0
 73
     1
 74
     1
 75
     0
 76
     0
 77
     0
 78
     0
170
     0
171
     2
172
     0
173
     0
174
     0
175
     0
176
     0
177
     0
178
     0
  0
ENDTAB
  0
ENDSEC
  0
SECTION
  2
BLOCKS
  0
BLOCK
  8
0
  2
$MODEL_SPACE
 70
     0
 10
0.0
 20
0.0
 30
0.0
  3
$MODEL_SPACE
  1

  0
ENDBLK
  5
21
  8
0
  0
BLOCK
 67
     1
  8
0
  2
$PAPER_SPACE
 70
     0
 10
0.0
 20
0.0
 30
0.0
  3
$PAPER_SPACE
  1

  0
ENDBLK
  5
1D
 67
     1
  8
0
  0
ENDSEC
  0
SECTION
  2
ENTITIES
  0
POLYLINE
  5
41
  8
LAYER_1
 66
     1
 10
0.0
 20
0.0
 30
0.0
 70
     1
  0
VERTEX
  5
92
  8
LAYER_1
 10
61.5
 20
-466.1375921375896
 30
0.0
  0
VERTEX
  5
93
  8
LAYER_1
 10
264.3
 20
-466.1375921375896
 30
0.0
  0
VERTEX
  5
94
  8
LAYER_1
 10
264.3
 20
-318.1375921375895
 30
0.0
  0
VERTEX
  5
95
  8
LAYER_1
 10
61.5
 20
-318.1375921375895
 30
0.0
  0
SEQEND
  5
96
  8
LAYER_1
  0
POLYLINE
  5
42
  8
LAYER_1
 66
     1
 10
0.0
 20
0.0
 30
0.0
 70
     1
  0
VERTEX
  5
97
  8
LAYER_1
 10
115.4
 20
-461.9875921375896
 30
0.0
  0
VERTEX
  5
98
  8
LAYER_1
 10
194.65
 20
-461.9875921375896
 30
0.0
  0
VERTEX
  5
99
  8
LAYER_1
 10
194.65
 20
-322.2875921375895
 30
0.0
  0
VERTEX
  5
9A
  8
LAYER_1
 10
115.4
 20
-322.2875921375895
 30
0.0
  0
SEQEND
  5
9B
  8
LAYER_1
  0
POLYLINE
  5
43
  8
LAYER_1
 66
     1
 10
0.0
 20
0.0
 30
0.0
 70
     1
  0
VERTEX
  5
9C
  8
LAYER_1
 10
115.4
 20
-320.7875921375895
 30
0.0
 42
0.4142135623730951
  0
VERTEX
  5
9D
  8
LAYER_1
 10
113.9
 20
-322.2875921375895
 30
0.0
 42
0.4142135623730951
  0
VERTEX
  5
9E
  8
LAYER_1
 10
115.4
 20
-323.7875921375895
 30
0.0
 42
0.4142135623730951
  0
VERTEX
  5
9F
  8
LAYER_1
 10
116.9
 20
-322.2875921375895
 30
0.0
 42
0.4142135623730951
  0
SEQEND
  5
A0
  8
LAYER_1
  0
POLYLINE
  5
44
  8
LAYER_1
 66
     1
 10
0.0
 20
0.0
 30
0.0
 70
     1
  0
VERTEX
  5
A1
  8
LAYER_1
 10
194.65
 20
-320.7875921375895
 30
0.0
 42
0.4142135623730951
  0
VERTEX
  5
A2
  8
LAYER_1
 10
193.15
 20
-322.2875921375895
 30
0.0
 42
0.4142135623730951
  0
VERTEX
  5
A3
  8
LAYER_1
 10
194.65
 20
-323.7875921375895
 30
0.0
 42
0.4142135623730951
  0
VERTEX
  5
A4
  8
LAYER_1
 10
196.15
 20
-322.2875921375895
 30
0.0
 42
0.4142135623730951
  0
SEQEND
  5
A5
  8
LAYER_1
  0
POLYLINE
  5
45
  8
LAYER_1
 66
     1
 10
0.0
 20
0.0
 30
0.0
 70
     1
  0
VERTEX
  5
A6
  8
LAYER_1
 10
194.65
 20
-460.4875921375896
 30
0.0
 42
0.4142135623730951
  0
VERTEX
  5
A7
  8
LAYER_1
 10
193.15
 20
-461.9875921375896
 30
0.0
 42
0.4142135623730951
  0
VERTEX
  5
A8
  8
LAYER_1
 10
194.65
 20
-463.4875921375896
 30
0.0
 42
0.4142135623730951
  0
VERTEX
  5
A9
  8
LAYER_1
 10
196.15
 20
-461.9875921375896
 30
0.0
 42
0.4142135623730951
  0
SEQEND
  5
AA
  8
LAYER_1
  0
POLYLINE
  5
46
  8
LAYER_1
 66
     1
 10
0.0
 20
0.0
 30
0.0
 70
     1
  0
VERTEX
  5
AB
  8
LAYER_1
 10
115.4
 20
-460.4875921375896
 30
0.0
 42
0.4142135623730951
  0
VERTEX
  5
AC
  8
LAYER_1
 10
113.9
 20
-461.9875921375896
 30
0.0
 42
0.4142135623730951
  0
VERTEX
  5
AD
  8
LAYER_1
 10
115.4
 20
-463.4875921375896
 30
0.0
 42
0.4142135623730951
  0
VERTEX
  5
AE
  8
LAYER_1
 10
116.9
 20
-461.9875921375896
 30
0.0
 42
0.4142135623730951
  0
SEQEND
  5
AF
  8
LAYER_1
  0
POLYLINE
  5
47
  8
LAYER_1
 66
     1
 10
0.0
 20
0.0
 30
0.0
 70
     1
  0
VERTEX
  5
B0
  8
LAYER_1
 10
-61.5
 20
-466.1375921375896
 30
0.0
  0
VERTEX
  5
B1
  8
LAYER_1
 10
61.5
 20
-466.1375921375896
 30
0.0
  0
VERTEX
  5
B2
  8
LAYER_1
 10
61.5
 20
-318.1375921375895
 30
0.0
  0
VERTEX
  5
B3
  8
LAYER_1
 10
-61.5
 20
-318.1375921375895
 30
0.0
  0
SEQEND
  5
B4
  8
LAYER_1
  0
POLYLINE
  5
48
  8
LAYER_1
 66
     1
 10
0.0
 20
0.0
 30
0.0
 70
     1
  0
VERTEX
  5
B5
  8
LAYER_1
 10
0.0
 20
-389.6375921375895
 30
0.0
 42
0.4142135623730951
  0
VERTEX
  5
B6
  8
LAYER_1
 10
-2.5
 20
-392.1375921375895
 30
0.0
 42
0.4142135623730951
  0
VERTEX
  5
B7
  8
LAYER_1
 10
0.0
 20
-394.6375921375895
 30
0.0
 42
0.4142135623730951
  0
VERTEX
  5
B8
  8
LAYER_1
 10
2.5
 20
-392.1375921375895
 30
0.0
 42
0.4142135623730951
  0
SEQEND
  5
B9
  8
LAYER_1
  0
POLYLINE
  5
49
  8
LAYER_1
 66
     1
 10
0.0
 20
0.0
 30
0.0
 70
     1
  0
VERTEX
  5
BA
  8
LAYER_1
 10
-61.5
 20
-905.3949402192782
 30
0.0
  0
VERTEX
  5
BB
  8
LAYER_1
 10
61.5
 20
-905.3949402192782
 30
0.0
  0
VERTEX
  5
BC
  8
LAYER_1
 10
61.5
 20
-757.3949402192782
 30
0.0
  0
VERTEX
  5
BD
  8
LAYER_1
 10
-61.5
 20
-757.3949402192782
 30
0.0
  0
SEQEND
  5
BE
  8
LAYER_1
  0
POLYLINE
  5
4A
  8
LAYER_1
 66
     1
 10
0.0
 20
0.0
 30
0.0
 70
     1
  0
VERTEX
  5
BF
  8
LAYER_1
 10
0.0
 20
-828.8949402192782
 30
0.0
 42
0.4142135623730951
  0
VERTEX
  5
C0
  8
LAYER_1
 10
-2.5
 20
-831.3949402192782
 30
0.0
 42
0.4142135623730951
  0
VERTEX
  5
C1
  8
LAYER_1
 10
0.0
 20
-833.8949402192782
 30
0.0
 42
0.4142135623730951
  0
VERTEX
  5
C2
  8
LAYER_1
 10
2.5
 20
-831.3949402192782
 30
0.0
 42
0.4142135623730951
  0
SEQEND
  5
C3
  8
LAYER_1
  0
POLYLINE
  5
4B
  8
LAYER_1
 66
     1
 10
0.0
 20
0.0
 30
0.0
 70
     1
  0
VERTEX
  5
C4
  8
LAYER_1
 10
133.6810417690416
 20
-760.044940219278
 30
0.0
 42
-0.4142135623730951
  0
VERTEX
  5
C5
  8
LAYER_1
 10
135.1810417690416
 20
-761.544940219278
 30
0.0
 42
-0.4142135623730951
  0
VERTEX
  5
C6
  8
LAYER_1
 10
133.6810417690416
 20
-763.044940219278
 30
0.0
  0
VERTEX
  5
C7
  8
LAYER_1
 10
105.5726191646192
 20
-763.044940219278
 30
0.0
 42
-0.4142135623730951
  0
VERTEX
  5
C8
  8
LAYER_1
 10
104.0726191646192
 20
-761.544940219278
 30
0.0
 42
-0.4142135623730951
  0
VERTEX
  5
C9
  8
LAYER_1
 10
105.5726191646192
 20
-760.044940219278
 30
0.0
  0
SEQEND
  5
CA
  8
LAYER_1
  0
POLYLINE
  5
4C
  8
LAYER_1
 66
     1
 10
0.0
 20
0.0
 30
0.0
 70
     1
  0
VERTEX
  5
CB
  8
LAYER_1
 10
212.9310417690416
 20
-760.044940219278
 30
0.0
 42
-0.4142135623730951
  0
VERTEX
  5
CC
  8
LAYER_1
 10
214.4310417690416
 20
-761.544940219278
 30
0.0
 42
-0.4142135623730951
  0
VERTEX
  5
CD
  8
LAYER_1
 10
212.9310417690416
 20
-763.044940219278
 30
0.0
  0
VERTEX
  5
CE
  8
LAYER_1
 10
184.8226191646192
 20
-763.044940219278
 30
0.0
 42
-0.4142135623730951
  0
VERTEX
  5
CF
  8
LAYER_1
 10
183.3226191646192
 20
-761.544940219278
 30
0.0
 42
-0.4142135623730951
  0
VERTEX
  5
D0
  8
LAYER_1
 10
184.8226191646192
 20
-760.044940219278
 30
0.0
  0
SEQEND
  5
D1
  8
LAYER_1
  0
POLYLINE
  5
4D
  8
LAYER_1
 66
     1
 10
0.0
 20
0.0
 30
0.0
 70
     1
  0
VERTEX
  5
D2
  8
LAYER_1
 10
133.6810417690416
 20
-899.7449402192781
 30
0.0
 42
-0.4142135623730951
  0
VERTEX
  5
D3
  8
LAYER_1
 10
135.1810417690416
 20
-901.2449402192781
 30
0.0
 42
-0.4142135623730951
  0
VERTEX
  5
D4
  8
LAYER_1
 10
133.6810417690416
 20
-902.7449402192781
 30
0.0
  0
VERTEX
  5
D5
  8
LAYER_1
 10
105.5726191646192
 20
-902.7449402192781
 30
0.0
 42
-0.4142135623730951
  0
VERTEX
  5
D6
  8
LAYER_1
 10
104.0726191646192
 20
-901.2449402192781
 30
0.0
 42
-0.4142135623730951
  0
VERTEX
  5
D7
  8
LAYER_1
 10
105.5726191646192
 20
-899.7449402192781
 30
0.0
  0
SEQEND
  5
D8
  8
LAYER_1
  0
POLYLINE
  5
4E
  8
LAYER_1
 66
     1
 10
0.0
 20
0.0
 30
0.0
 70
     1
  0
VERTEX
  5
D9
  8
LAYER_1
 10
212.9310417690416
 20
-899.7449402192781
 30
0.0
 42
-0.4142135623730951
  0
VERTEX
  5
DA
  8
LAYER_1
 10
214.4310417690416
 20
-901.2449402192781
 30
0.0
 42
-0.4142135623730951
  0
VERTEX
  5
DB
  8
LAYER_1
 10
212.9310417690416
 20
-902.7449402192781
 30
0.0
  0
VERTEX
  5
DC
  8
LAYER_1
 10
184.8226191646192
 20
-902.7449402192781
 30
0.0
 42
-0.4142135623730951
  0
VERTEX
  5
DD
  8
LAYER_1
 10
183.3226191646192
 20
-901.2449402192781
 30
0.0
 42
-0.4142135623730951
  0
VERTEX
  5
DE
  8
LAYER_1
 10
184.8226191646192
 20
-899.7449402192781
 30
0.0
  0
SEQEND
  5
DF
  8
LAYER_1
  0
POLYLINE
  5
4F
  8
LAYER_1
 66
     1
 10
0.0
 20
0.0
 30
0.0
 70
     1
  0
VERTEX
  5
E0
  8
LAYER_1
 10
61.5
 20
-905.3949402192782
 30
0.0
  0
VERTEX
  5
E1
  8
LAYER_1
 10
264.3
 20
-905.3949402192782
 30
0.0
  0
VERTEX
  5
E2
  8
LAYER_1
 10
264.3
 20
-757.3949402192782
 30
0.0
  0
VERTEX
  5
E3
  8
LAYER_1
 10
61.5
 20
-757.3949402192782
 30
0.0
  0
SEQEND
  5
E4
  8
LAYER_1
  0
POLYLINE
  5
50
  8
LAYER_1
 66
     1
 10
0.0
 20
0.0
 30
0.0
 70
     1
  0
VERTEX
  5
E5
  8
LAYER_1
 10
61.5
 20
-913.3949402192782
 30
0.0
 42
0.4142135623730951
  0
VERTEX
  5
E6
  8
LAYER_1
 10
64.5
 20
-916.3949402192782
 30
0.0
  0
VERTEX
  5
E7
  8
LAYER_1
 10
68.5
 20
-916.3949402192782
 30
0.0
 42
0.4142135623730951
  0
VERTEX
  5
E8
  8
LAYER_1
 10
71.5
 20
-913.3949402192782
 30
0.0
  0
VERTEX
  5
E9
  8
LAYER_1
 10
71.5
 20
-749.394940219278
 30
0.0
 42
0.4142135623730951
  0
VERTEX
  5
EA
  8
LAYER_1
 10
68.5
 20
-746.394940219278
 30
0.0
  0
VERTEX
  5
EB
  8
LAYER_1
 10
64.5
 20
-746.394940219278
 30
0.0
 42
0.4142135623730951
  0
VERTEX
  5
EC
  8
LAYER_1
 10
61.5
 20
-749.394940219278
 30
0.0
  0
SEQEND
  5
ED
  8
LAYER_1
  0
POLYLINE
  5
51
  8
LAYER_1
 66
     1
 10
0.0
 20
0.0
 30
0.0
 70
     1
  0
VERTEX
  5
EE
  8
LAYER_1
 10
254.3
 20
-913.3949402192782
 30
0.0
 42
0.4142135623730951
  0
VERTEX
  5
EF
  8
LAYER_1
 10
257.3
 20
-916.3949402192782
 30
0.0
  0
VERTEX
  5
F0
  8
LAYER_1
 10
261.3
 20
-916.3949402192782
 30
0.0
 42
0.4142135623730951
  0
VERTEX
  5
F1
  8
LAYER_1
 10
264.3
 20
-913.3949402192782
 30
0.0
  0
VERTEX
  5
F2
  8
LAYER_1
 10
264.3
 20
-749.394940219278
 30
0.0
 42
0.4142135623730951
  0
VERTEX
  5
F3
  8
LAYER_1
 10
261.3
 20
-746.394940219278
 30
0.0
  0
VERTEX
  5
F4
  8
LAYER_1
 10
257.3
 20
-746.394940219278
 30
0.0
 42
0.4142135623730951
  0
VERTEX
  5
F5
  8
LAYER_1
 10
254.3
 20
-749.394940219278
 30
0.0
  0
SEQEND
  5
F6
  8
LAYER_1
  0
POLYLINE
  5
52
  8
LAYER_1
 66
     1
 10
0.0
 20
0.0
 30
0.0
 70
     1
  0
VERTEX
  5
F7
  8
LAYER_1
 10
66.5
 20
-750.894940219278
 30
0.0
 42
0.4142135623730951
  0
VERTEX
  5
F8
  8
LAYER_1
 10
65.0
 20
-752.3949402192782
 30
0.0
 42
0.4142135623730951
  0
VERTEX
  5
F9
  8
LAYER_1
 10
66.5
 20
-753.8949402192782
 30
0.0
 42
0.4142135623730951
  0
VERTEX
  5
FA
  8
LAYER_1
 10
68.0
 20
-752.3949402192782
 30
0.0
 42
0.4142135623730951
  0
SEQEND
  5
FB
  8
LAYER_1
  0
POLYLINE
  5
53
  8
LAYER_1
 66
     1
 10
0.0
 20
0.0
 30
0.0
 70
     1
  0
VERTEX
  5
FC
  8
LAYER_1
 10
259.3
 20
-750.894940219278
 30
0.0
 42
0.4142135623730951
  0
VERTEX
  5
FD
  8
LAYER_1
 10
257.8
 20
-752.3949402192782
 30
0.0
 42
0.4142135623730951
  0
VERTEX
  5
FE
  8
LAYER_1
 10
259.3
 20
-753.8949402192782
 30
0.0
 42
0.4142135623730951
  0
VERTEX
  5
FF
  8
LAYER_1
 10
260.8
 20
-752.3949402192782
 30
0.0
 42
0.4142135623730951
  0
SEQEND
  5
100
  8
LAYER_1
  0
POLYLINE
  5
54
  8
LAYER_1
 66
     1
 10
0.0
 20
0.0
 30
0.0
 70
     1
  0
VERTEX
  5
101
  8
LAYER_1
 10
259.3
 20
-908.8949402192782
 30
0.0
 42
0.4142135623730951
  0
VERTEX
  5
102
  8
LAYER_1
 10
257.8
 20
-910.3949402192782
 30
0.0
 42
0.4142135623730951
  0
VERTEX
  5
103
  8
LAYER_1
 10
259.3
 20
-911.8949402192782
 30
0.0
 42
0.4142135623730951
  0
VERTEX
  5
104
  8
LAYER_1
 10
260.8
 20
-910.3949402192782
 30
0.0
 42
0.4142135623730951
  0
SEQEND
  5
105
  8
LAYER_1
  0
POLYLINE
  5
55
  8
LAYER_1
 66
     1
 10
0.0
 20
0.0
 30
0.0
 70
     1
  0
VERTEX
  5
106
  8
LAYER_1
 10
66.5
 20
-908.8949402192782
 30
0.0
 42
0.4142135623730951
  0
VERTEX
  5
107
  8
LAYER_1
 10
65.0
 20
-910.3949402192782
 30
0.0
 42
0.4142135623730951
  0
VERTEX
  5
108
  8
LAYER_1
 10
66.5
 20
-911.8949402192782
 30
0.0
 42
0.4142135623730951
  0
VERTEX
  5
109
  8
LAYER_1
 10
68.0
 20
-910.3949402192782
 30
0.0
 42
0.4142135623730951
  0
SEQEND
  5
10A
  8
LAYER_1
  0
POLYLINE
  5
56
  8
LAYER_1
 66
     1
 10
0.0
 20
0.0
 30
0.0
 70
     1
  0
VERTEX
  5
10B
  8
LAYER_1
 10
85.0
 20
-856.3949402192782
 30
0.0
 42
0.4142135623730951
  0
VERTEX
  5
10C
  8
LAYER_1
 10
95.0
 20
-866.3949402192782
 30
0.0
  0
VERTEX
  5
10D
  8
LAYER_1
 10
225.0
 20
-866.3949402192782
 30
0.0
 42
0.4142135623730951
  0
VERTEX
  5
10E
  8
LAYER_1
 10
235.0
 20
-856.3949402192782
 30
0.0
  0
VERTEX
  5
10F
  8
LAYER_1
 10
235.0
 20
-806.3949402192782
 30
0.0
 42
0.4142135623730951
  0
VERTEX
  5
110
  8
LAYER_1
 10
225.0
 20
-796.3949402192782
 30
0.0
  0
VERTEX
  5
111
  8
LAYER_1
 10
95.0
 20
-796.3949402192782
 30
0.0
 42
0.4142135623730951
  0
VERTEX
  5
112
  8
LAYER_1
 10
85.0
 20
-806.3949402192782
 30
0.0
  0
SEQEND
  5
113
  8
LAYER_1
  0
POLYLINE
  5
57
  8
LAYER_1
 66
     1
 10
0.0
 20
0.0
 30
0.0
 70
     1
  0
VERTEX
  5
114
  8
LAYER_1
 10
85.0
 20
-767.4397441071417
 30
0.0
  0
VERTEX
  5
115
  8
LAYER_1
 10
85.01301193794731
 20
-767.5796494661544
 30
0.0
  0
VERTEX
  5
116
  8
LAYER_1
 10
85.05162887269925
 20
-767.7177182056945
 30
0.0
  0
VERTEX
  5
117
  8
LAYER_1
 10
85.11522248562089
 20
-767.8537795030438
 30
0.0
  0
VERTEX
  5
118
  8
LAYER_1
 10
85.20316445807723
 20
-767.9876625354846
 30
0.0
  0
VERTEX
  5
119
  8
LAYER_1
 10
85.3148264714333
 20
-768.1191964802982
 30
0.0
  0
VERTEX
  5
11A
  8
LAYER_1
 10
85.44958020705418
 20
-768.2482105147667
 30
0.0
  0
VERTEX
  5
11B
  8
LAYER_1
 10
85.60679734630487
 20
-768.3745338161718
 30
0.0
  0
VERTEX
  5
11C
  8
LAYER_1
 10
85.78584957055044
 20
-768.4979955617954
 30
0.0
  0
VERTEX
  5
11D
  8
LAYER_1
 10
85.9861085611559
 20
-768.6184249289192
 30
0.0
  0
VERTEX
  5
11E
  8
LAYER_1
 10
86.20694599948632
 20
-768.7356510948254
 30
0.0
  0
VERTEX
  5
11F
  8
LAYER_1
 10
86.44773356690669
 20
-768.8495032367954
 30
0.0
  0
VERTEX
  5
120
  8
LAYER_1
 10
86.70784294478209
 20
-768.9598105321111
 30
0.0
  0
VERTEX
  5
121
  8
LAYER_1
 10
86.98664581447753
 20
-769.0664021580544
 30
0.0
  0
VERTEX
  5
122
  8
LAYER_1
 10
87.28351385735806
 20
-769.1691072919073
 30
0.0
  0
VERTEX
  5
123
  8
LAYER_1
 10
87.59781875478872
 20
-769.2677551109514
 30
0.0
  0
VERTEX
  5
124
  8
LAYER_1
 10
87.92893218813452
 20
-769.3621747924686
 30
0.0
  0
VERTEX
  5
125
  8
LAYER_1
 10
88.27622583876054
 20
-769.4521955137408
 30
0.0
  0
VERTEX
  5
126
  8
LAYER_1
 10
88.63907138803178
 20
-769.5376464520496
 30
0.0
  0
VERTEX
  5
127
  8
LAYER_1
 10
89.0168405173133
 20
-769.618356784677
 30
0.0
  0
VERTEX
  5
128
  8
LAYER_1
 10
89.40890490797014
 20
-769.6941556889047
 30
0.0
  0
VERTEX
  5
129
  8
LAYER_1
 10
90.23340619886989
 20
-769.8303359212887
 30
0.0
  0
VERTEX
  5
12A
  8
LAYER_1
 10
91.10754871165133
 20
-769.9448205674563
 30
0.0
  0
VERTEX
  5
12B
  8
LAYER_1
 10
92.02630589723476
 20
-770.036243045662
 30
0.0
  0
VERTEX
  5
12C
  8
LAYER_1
 10
92.98465120654049
 20
-770.1032367741602
 30
0.0
  0
VERTEX
  5
12D
  8
LAYER_1
 10
93.9775580904888
 20
-770.1444351712058
 30
0.0
  0
VERTEX
  5
12E
  8
LAYER_1
 10
95.0
 20
-770.1584716550533
 30
0.0
  0
VERTEX
  5
12F
  8
LAYER_1
 10
225.0
 20
-770.1584716550533
 30
0.0
  0
VERTEX
  5
130
  8
LAYER_1
 10
226.0224419095112
 20
-770.1444351712058
 30
0.0
  0
VERTEX
  5
131
  8
LAYER_1
 10
227.0153487934595
 20
-770.1032367741602
 30
0.0
  0
VERTEX
  5
132
  8
LAYER_1
 10
227.9736941027652
 20
-770.036243045662
 30
0.0
  0
VERTEX
  5
133
  8
LAYER_1
 10
228.8924512883486
 20
-769.9448205674563
 30
0.0
  0
VERTEX
  5
134
  8
LAYER_1
 10
229.7665938011301
 20
-769.8303359212887
 30
0.0
  0
VERTEX
  5
135
  8
LAYER_1
 10
230.5910950920298
 20
-769.6941556889047
 30
0.0
  0
VERTEX
  5
136
  8
LAYER_1
 10
230.9831594826867
 20
-769.618356784677
 30
0.0
  0
VERTEX
  5
137
  8
LAYER_1
 10
231.3609286119682
 20
-769.5376464520496
 30
0.0
  0
VERTEX
  5
138
  8
LAYER_1
 10
231.7237741612395
 20
-769.4521955137408
 30
0.0
  0
VERTEX
  5
139
  8
LAYER_1
 10
232.0710678118655
 20
-769.3621747924686
 30
0.0
  0
VERTEX
  5
13A
  8
LAYER_1
 10
232.4021812452113
 20
-769.2677551109514
 30
0.0
  0
VERTEX
  5
13B
  8
LAYER_1
 10
232.7164861426419
 20
-769.1691072919073
 30
0.0
  0
VERTEX
  5
13C
  8
LAYER_1
 10
233.0133541855225
 20
-769.0664021580544
 30
0.0
  0
VERTEX
  5
13D
  8
LAYER_1
 10
233.2921570552179
 20
-768.9598105321111
 30
0.0
  0
VERTEX
  5
13E
  8
LAYER_1
 10
233.5522664330933
 20
-768.8495032367954
 30
0.0
  0
VERTEX
  5
13F
  8
LAYER_1
 10
233.7930540005137
 20
-768.7356510948254
 30
0.0
  0
VERTEX
  5
140
  8
LAYER_1
 10
234.0138914388441
 20
-768.6184249289192
 30
0.0
  0
VERTEX
  5
141
  8
LAYER_1
 10
234.2141504294495
 20
-768.4979955617954
 30
0.0
  0
VERTEX
  5
142
  8
LAYER_1
 10
234.3932026536951
 20
-768.3745338161718
 30
0.0
  0
VERTEX
  5
143
  8
LAYER_1
 10
234.5504197929458
 20
-768.2482105147667
 30
0.0
  0
VERTEX
  5
144
  8
LAYER_1
 10
234.6851735285667
 20
-768.1191964802982
 30
0.0
  0
VERTEX
  5
145
  8
LAYER_1
 10
234.7968355419228
 20
-767.9876625354846
 30
0.0
  0
VERTEX
  5
146
  8
LAYER_1
 10
234.8847775143792
 20
-767.8537795030438
 30
0.0
  0
VERTEX
  5
147
  8
LAYER_1
 10
234.9483711273007
 20
-767.7177182056945
 30
0.0
  0
VERTEX
  5
148
  8
LAYER_1
 10
234.9869880620527
 20
-767.5796494661544
 30
0.0
  0
VERTEX
  5
149
  8
LAYER_1
 10
235.0
 20
-767.4397441071417
 30
0.0
  0
VERTEX
  5
14A
  8
LAYER_1
 10
235.0
 20
-753.8461063675841
 30
0.0
  0
VERTEX
  5
14B
  8
LAYER_1
 10
234.9869880620527
 20
-753.7062010085715
 30
0.0
  0
VERTEX
  5
14C
  8
LAYER_1
 10
234.9483711273007
 20
-753.5681322690314
 30
0.0
  0
VERTEX
  5
14D
  8
LAYER_1
 10
234.8847775143792
 20
-753.4320709716819
 30
0.0
  0
VERTEX
  5
14E
  8
LAYER_1
 10
234.7968355419228
 20
-753.2981879392412
 30
0.0
  0
VERTEX
  5
14F
  8
LAYER_1
 10
234.6851735285667
 20
-753.1666539944275
 30
0.0
  0
VERTEX
  5
150
  8
LAYER_1
 10
234.5504197929458
 20
-753.037639959959
 30
0.0
  0
VERTEX
  5
151
  8
LAYER_1
 10
234.3932026536951
 20
-752.9113166585539
 30
0.0
  0
VERTEX
  5
152
  8
LAYER_1
 10
234.2141504294495
 20
-752.7878549129304
 30
0.0
  0
VERTEX
  5
153
  8
LAYER_1
 10
234.0138914388441
 20
-752.6674255458065
 30
0.0
  0
VERTEX
  5
154
  8
LAYER_1
 10
233.7930540005137
 20
-752.5501993799004
 30
0.0
  0
VERTEX
  5
155
  8
LAYER_1
 10
233.5522664330933
 20
-752.4363472379304
 30
0.0
  0
VERTEX
  5
156
  8
LAYER_1
 10
233.2921570552179
 20
-752.3260399426147
 30
0.0
  0
VERTEX
  5
157
  8
LAYER_1
 10
233.0133541855225
 20
-752.2194483166713
 30
0.0
  0
VERTEX
  5
158
  8
LAYER_1
 10
232.7164861426419
 20
-752.1167431828185
 30
0.0
  0
VERTEX
  5
159
  8
LAYER_1
 10
232.4021812452113
 20
-752.0180953637744
 30
0.0
  0
VERTEX
  5
15A
  8
LAYER_1
 10
232.0710678118655
 20
-751.9236756822572
 30
0.0
  0
VERTEX
  5
15B
  8
LAYER_1
 10
231.7237741612395
 20
-751.8336549609852
 30
0.0
  0
VERTEX
  5
15C
  8
LAYER_1
 10
231.3609286119682
 20
-751.7482040226764
 30
0.0
  0
VERTEX
  5
15D
  8
LAYER_1
 10
230.9831594826867
 20
-751.667493690049
 30
0.0
  0
VERTEX
  5
15E
  8
LAYER_1
 10
230.5910950920298
 20
-751.5916947858212
 30
0.0
  0
VERTEX
  5
15F
  8
LAYER_1
 10
229.7665938011301
 20
-751.4555145534373
 30
0.0
  0
VERTEX
  5
160
  8
LAYER_1
 10
228.8924512883486
 20
-751.3410299072697
 30
0.0
  0
VERTEX
  5
161
  8
LAYER_1
 10
227.9736941027652
 20
-751.249607429064
 30
0.0
  0
VERTEX
  5
162
  8
LAYER_1
 10
227.0153487934595
 20
-751.1826137005658
 30
0.0
  0
VERTEX
  5
163
  8
LAYER_1
 10
226.0224419095112
 20
-751.1414153035201
 30
0.0
  0
VERTEX
  5
164
  8
LAYER_1
 10
225.0
 20
-751.1273788196727
 30
0.0
  0
VERTEX
  5
165
  8
LAYER_1
 10
95.0
 20
-751.1273788196727
 30
0.0
  0
VERTEX
  5
166
  8
LAYER_1
 10
93.9775580904888
 20
-751.1414153035201
 30
0.0
  0
VERTEX
  5
167
  8
LAYER_1
 10
92.98465120654049
 20
-751.1826137005658
 30
0.0
  0
VERTEX
  5
168
  8
LAYER_1
 10
92.02630589723476
 20
-751.249607429064
 30
0.0
  0
VERTEX
  5
169
  8
LAYER_1
 10
91.10754871165133
 20
-751.3410299072697
 30
0.0
  0
VERTEX
  5
16A
  8
LAYER_1
 10
90.23340619886989
 20
-751.4555145534373
 30
0.0
  0
VERTEX
  5
16B
  8
LAYER_1
 10
89.40890490797014
 20
-751.5916947858212
 30
0.0
  0
VERTEX
  5
16C
  8
LAYER_1
 10
89.0168405173133
 20
-751.667493690049
 30
0.0
  0
VERTEX
  5
16D
  8
LAYER_1
 10
88.63907138803178
 20
-751.7482040226764
 30
0.0
  0
VERTEX
  5
16E
  8
LAYER_1
 10
88.27622583876054
 20
-751.8336549609852
 30
0.0
  0
VERTEX
  5
16F
  8
LAYER_1
 10
87.92893218813452
 20
-751.9236756822572
 30
0.0
  0
VERTEX
  5
170
  8
LAYER_1
 10
87.59781875478872
 20
-752.0180953637744
 30
0.0
  0
VERTEX
  5
171
  8
LAYER_1
 10
87.28351385735806
 20
-752.1167431828185
 30
0.0
  0
VERTEX
  5
172
  8
LAYER_1
 10
86.98664581447753
 20
-752.2194483166713
 30
0.0
  0
VERTEX
  5
173
  8
LAYER_1
 10
86.70784294478209
 20
-752.3260399426147
 30
0.0
  0
VERTEX
  5
174
  8
LAYER_1
 10
86.44773356690669
 20
-752.4363472379304
 30
0.0
  0
VERTEX
  5
175
  8
LAYER_1
 10
86.20694599948632
 20
-752.5501993799004
 30
0.0
  0
VERTEX
  5
176
  8
LAYER_1
 10
85.9861085611559
 20
-752.6674255458065
 30
0.0
  0
VERTEX
  5
177
  8
LAYER_1
 10
85.78584957055044
 20
-752.7878549129304
 30
0.0
  0
VERTEX
  5
178
  8
LAYER_1
 10
85.60679734630487
 20
-752.9113166585539
 30
0.0
  0
VERTEX
  5
179
  8
LAYER_1
 10
85.44958020705418
 20
-753.037639959959
 30
0.0
  0
VERTEX
  5
17A
  8
LAYER_1
 10
85.3148264714333
 20
-753.1666539944275
 30
0.0
  0
VERTEX
  5
17B
  8
LAYER_1
 10
85.20316445807723
 20
-753.2981879392412
 30
0.0
  0
VERTEX
  5
17C
  8
LAYER_1
 10
85.11522248562089
 20
-753.4320709716819
 30
0.0
  0
VERTEX
  5
17D
  8
LAYER_1
 10
85.05162887269925
 20
-753.5681322690314
 30
0.0
  0
VERTEX
  5
17E
  8
LAYER_1
 10
85.01301193794731
 20
-753.7062010085715
 30
0.0
  0
VERTEX
  5
17F
  8
LAYER_1
 10
85.0
 20
-753.8461063675841
 30
0.0
  0
SEQEND
  5
180
  8
LAYER_1
  0
POLYLINE
  5
58
  8
LAYER_1
 66
     1
 10
0.0
 20
0.0
 30
0.0
 70
     1
  0
VERTEX
  5
181
  8
LAYER_1
 10
85.0
 20
-908.9433055067473
 30
0.0
  0
VERTEX
  5
182
  8
LAYER_1
 10
85.01301193794731
 20
-909.0832108657598
 30
0.0
  0
VERTEX
  5
183
  8
LAYER_1
 10
85.05162887269925
 20
-909.2212796053
 30
0.0
  0
VERTEX
  5
184
  8
LAYER_1
 10
85.11522248562089
 20
-909.3573409026494
 30
0.0
  0
VERTEX
  5
185
  8
LAYER_1
 10
85.20316445807723
 20
-909.4912239350901
 30
0.0
  0
VERTEX
  5
186
  8
LAYER_1
 10
85.3148264714333
 20
-909.6227578799038
 30
0.0
  0
VERTEX
  5
187
  8
LAYER_1
 10
85.44958020705418
 20
-909.7517719143723
 30
0.0
  0
VERTEX
  5
188
  8
LAYER_1
 10
85.60679734630487
 20
-909.8780952157774
 30
0.0
  0
VERTEX
  5
189
  8
LAYER_1
 10
85.78584957055044
 20
-910.001556961401
 30
0.0
  0
VERTEX
  5
18A
  8
LAYER_1
 10
85.9861085611559
 20
-910.1219863285248
 30
0.0
  0
VERTEX
  5
18B
  8
LAYER_1
 10
86.20694599948632
 20
-910.239212494431
 30
0.0
  0
VERTEX
  5
18C
  8
LAYER_1
 10
86.44773356690669
 20
-910.353064636401
 30
0.0
  0
VERTEX
  5
18D
  8
LAYER_1
 10
86.70784294478209
 20
-910.4633719317167
 30
0.0
  0
VERTEX
  5
18E
  8
LAYER_1
 10
86.98664581447753
 20
-910.56996355766
 30
0.0
  0
VERTEX
  5
18F
  8
LAYER_1
 10
87.28351385735806
 20
-910.6726686915129
 30
0.0
  0
VERTEX
  5
190
  8
LAYER_1
 10
87.59781875478872
 20
-910.771316510557
 30
0.0
  0
VERTEX
  5
191
  8
LAYER_1
 10
87.92893218813452
 20
-910.8657361920741
 30
0.0
  0
VERTEX
  5
192
  8
LAYER_1
 10
88.27622583876054
 20
-910.9557569133461
 30
0.0
  0
VERTEX
  5
193
  8
LAYER_1
 10
88.63907138803178
 20
-911.0412078516549
 30
0.0
  0
VERTEX
  5
194
  8
LAYER_1
 10
89.0168405173133
 20
-911.1219181842823
 30
0.0
  0
VERTEX
  5
195
  8
LAYER_1
 10
89.40890490797014
 20
-911.1977170885101
 30
0.0
  0
VERTEX
  5
196
  8
LAYER_1
 10
90.23340619886989
 20
-911.333897320894
 30
0.0
  0
VERTEX
  5
197
  8
LAYER_1
 10
91.10754871165133
 20
-911.4483819670617
 30
0.0
  0
VERTEX
  5
198
  8
LAYER_1
 10
92.02630589723476
 20
-911.5398044452674
 30
0.0
  0
VERTEX
  5
199
  8
LAYER_1
 10
92.98465120654049
 20
-911.6067981737656
 30
0.0
  0
VERTEX
  5
19A
  8
LAYER_1
 10
93.9775580904888
 20
-911.6479965708112
 30
0.0
  0
VERTEX
  5
19B
  8
LAYER_1
 10
95.0
 20
-911.6620330546587
 30
0.0
  0
VERTEX
  5
19C
  8
LAYER_1
 10
225.0
 20
-911.6620330546587
 30
0.0
  0
VERTEX
  5
19D
  8
LAYER_1
 10
226.0224419095112
 20
-911.6479965708112
 30
0.0
  0
VERTEX
  5
19E
  8
LAYER_1
 10
227.0153487934595
 20
-911.6067981737656
 30
0.0
  0
VERTEX
  5
19F
  8
LAYER_1
 10
227.9736941027652
 20
-911.5398044452674
 30
0.0
  0
VERTEX
  5
1A0
  8
LAYER_1
 10
228.8924512883486
 20
-911.4483819670617
 30
0.0
  0
VERTEX
  5
1A1
  8
LAYER_1
 10
229.7665938011301
 20
-911.333897320894
 30
0.0
  0
VERTEX
  5
1A2
  8
LAYER_1
 10
230.5910950920298
 20
-911.1977170885101
 30
0.0
  0
VERTEX
  5
1A3
  8
LAYER_1
 10
230.9831594826867
 20
-911.1219181842823
 30
0.0
  0
VERTEX
  5
1A4
  8
LAYER_1
 10
231.3609286119682
 20
-911.0412078516549
 30
0.0
  0
VERTEX
  5
1A5
  8
LAYER_1
 10
231.7237741612395
 20
-910.9557569133461
 30
0.0
  0
VERTEX
  5
1A6
  8
LAYER_1
 10
232.0710678118655
 20
-910.8657361920741
 30
0.0
  0
VERTEX
  5
1A7
  8
LAYER_1
 10
232.4021812452113
 20
-910.771316510557
 30
0.0
  0
VERTEX
  5
1A8
  8
LAYER_1
 10
232.7164861426419
 20
-910.6726686915129
 30
0.0
  0
VERTEX
  5
1A9
  8
LAYER_1
 10
233.0133541855225
 20
-910.56996355766
 30
0.0
  0
VERTEX
  5
1AA
  8
LAYER_1
 10
233.2921570552179
 20
-910.4633719317167
 30
0.0
  0
VERTEX
  5
1AB
  8
LAYER_1
 10
233.5522664330933
 20
-910.353064636401
 30
0.0
  0
VERTEX
  5
1AC
  8
LAYER_1
 10
233.7930540005137
 20
-910.239212494431
 30
0.0
  0
VERTEX
  5
1AD
  8
LAYER_1
 10
234.0138914388441
 20
-910.1219863285248
 30
0.0
  0
VERTEX
  5
1AE
  8
LAYER_1
 10
234.2141504294495
 20
-910.001556961401
 30
0.0
  0
VERTEX
  5
1AF
  8
LAYER_1
 10
234.3932026536951
 20
-909.8780952157774
 30
0.0
  0
VERTEX
  5
1B0
  8
LAYER_1
 10
234.5504197929458
 20
-909.7517719143723
 30
0.0
  0
VERTEX
  5
1B1
  8
LAYER_1
 10
234.6851735285667
 20
-909.6227578799038
 30
0.0
  0
VERTEX
  5
1B2
  8
LAYER_1
 10
234.7968355419228
 20
-909.4912239350901
 30
0.0
  0
VERTEX
  5
1B3
  8
LAYER_1
 10
234.8847775143792
 20
-909.3573409026494
 30
0.0
  0
VERTEX
  5
1B4
  8
LAYER_1
 10
234.9483711273007
 20
-909.2212796053
 30
0.0
  0
VERTEX
  5
1B5
  8
LAYER_1
 10
234.9869880620527
 20
-909.0832108657598
 30
0.0
  0
VERTEX
  5
1B6
  8
LAYER_1
 10
235.0
 20
-908.9433055067473
 30
0.0
  0
VERTEX
  5
1B7
  8
LAYER_1
 10
235.0
 20
-895.3496677671897
 30
0.0
  0
VERTEX
  5
1B8
  8
LAYER_1
 10
234.9869880620527
 20
-895.209762408177
 30
0.0
  0
VERTEX
  5
1B9
  8
LAYER_1
 10
234.9483711273007
 20
-895.0716936686368
 30
0.0
  0
VERTEX
  5
1BA
  8
LAYER_1
 10
234.8847775143792
 20
-894.9356323712875
 30
0.0
  0
VERTEX
  5
1BB
  8
LAYER_1
 10
234.7968355419228
 20
-894.8017493388468
 30
0.0
  0
VERTEX
  5
1BC
  8
LAYER_1
 10
234.6851735285667
 20
-894.6702153940331
 30
0.0
  0
VERTEX
  5
1BD
  8
LAYER_1
 10
234.5504197929458
 20
-894.5412013595646
 30
0.0
  0
VERTEX
  5
1BE
  8
LAYER_1
 10
234.3932026536951
 20
-894.4148780581595
 30
0.0
  0
VERTEX
  5
1BF
  8
LAYER_1
 10
234.2141504294495
 20
-894.291416312536
 30
0.0
  0
VERTEX
  5
1C0
  8
LAYER_1
 10
234.0138914388441
 20
-894.1709869454121
 30
0.0
  0
VERTEX
  5
1C1
  8
LAYER_1
 10
233.7930540005137
 20
-894.053760779506
 30
0.0
  0
VERTEX
  5
1C2
  8
LAYER_1
 10
233.5522664330933
 20
-893.939908637536
 30
0.0
  0
VERTEX
  5
1C3
  8
LAYER_1
 10
233.2921570552179
 20
-893.8296013422203
 30
0.0
  0
VERTEX
  5
1C4
  8
LAYER_1
 10
233.0133541855225
 20
-893.7230097162769
 30
0.0
  0
VERTEX
  5
1C5
  8
LAYER_1
 10
232.7164861426419
 20
-893.6203045824241
 30
0.0
  0
VERTEX
  5
1C6
  8
LAYER_1
 10
232.4021812452113
 20
-893.52165676338
 30
0.0
  0
VERTEX
  5
1C7
  8
LAYER_1
 10
232.0710678118655
 20
-893.4272370818627
 30
0.0
  0
VERTEX
  5
1C8
  8
LAYER_1
 10
231.7237741612395
 20
-893.3372163605906
 30
0.0
  0
VERTEX
  5
1C9
  8
LAYER_1
 10
231.3609286119682
 20
-893.2517654222818
 30
0.0
  0
VERTEX
  5
1CA
  8
LAYER_1
 10
230.9831594826867
 20
-893.1710550896544
 30
0.0
  0
VERTEX
  5
1CB
  8
LAYER_1
 10
230.5910950920298
 20
-893.0952561854266
 30
0.0
  0
VERTEX
  5
1CC
  8
LAYER_1
 10
229.7665938011301
 20
-892.9590759530427
 30
0.0
  0
VERTEX
  5
1CD
  8
LAYER_1
 10
228.8924512883486
 20
-892.844591306875
 30
0.0
  0
VERTEX
  5
1CE
  8
LAYER_1
 10
227.9736941027652
 20
-892.7531688286693
 30
0.0
  0
VERTEX
  5
1CF
  8
LAYER_1
 10
227.0153487934595
 20
-892.6861751001711
 30
0.0
  0
VERTEX
  5
1D0
  8
LAYER_1
 10
226.0224419095112
 20
-892.6449767031255
 30
0.0
  0
VERTEX
  5
1D1
  8
LAYER_1
 10
225.0
 20
-892.630940219278
 30
0.0
  0
VERTEX
  5
1D2
  8
LAYER_1
 10
95.0
 20
-892.630940219278
 30
0.0
  0
VERTEX
  5
1D3
  8
LAYER_1
 10
93.9775580904888
 20
-892.6449767031255
 30
0.0
  0
VERTEX
  5
1D4
  8
LAYER_1
 10
92.98465120654049
 20
-892.6861751001711
 30
0.0
  0
VERTEX
  5
1D5
  8
LAYER_1
 10
92.02630589723476
 20
-892.7531688286693
 30
0.0
  0
VERTEX
  5
1D6
  8
LAYER_1
 10
91.10754871165133
 20
-892.844591306875
 30
0.0
  0
VERTEX
  5
1D7
  8
LAYER_1
 10
90.23340619886989
 20
-892.9590759530427
 30
0.0
  0
VERTEX
  5
1D8
  8
LAYER_1
 10
89.40890490797014
 20
-893.0952561854266
 30
0.0
  0
VERTEX
  5
1D9
  8
LAYER_1
 10
89.0168405173133
 20
-893.1710550896544
 30
0.0
  0
VERTEX
  5
1DA
  8
LAYER_1
 10
88.63907138803178
 20
-893.2517654222818
 30
0.0
  0
VERTEX
  5
1DB
  8
LAYER_1
 10
88.27622583876054
 20
-893.3372163605906
 30
0.0
  0
VERTEX
  5
1DC
  8
LAYER_1
 10
87.92893218813452
 20
-893.4272370818627
 30
0.0
  0
VERTEX
  5
1DD
  8
LAYER_1
 10
87.59781875478872
 20
-893.52165676338
 30
0.0
  0
VERTEX
  5
1DE
  8
LAYER_1
 10
87.28351385735806
 20
-893.6203045824241
 30
0.0
  0
VERTEX
  5
1DF
  8
LAYER_1
 10
86.98664581447753
 20
-893.7230097162769
 30
0.0
  0
VERTEX
  5
1E0
  8
LAYER_1
 10
86.70784294478209
 20
-893.8296013422203
 30
0.0
  0
VERTEX
  5
1E1
  8
LAYER_1
 10
86.44773356690669
 20
-893.939908637536
 30
0.0
  0
VERTEX
  5
1E2
  8
LAYER_1
 10
86.20694599948632
 20
-894.053760779506
 30
0.0
  0
VERTEX
  5
1E3
  8
LAYER_1
 10
85.9861085611559
 20
-894.1709869454121
 30
0.0
  0
VERTEX
  5
1E4
  8
LAYER_1
 10
85.78584957055044
 20
-894.291416312536
 30
0.0
  0
VERTEX
  5
1E5
  8
LAYER_1
 10
85.60679734630487
 20
-894.4148780581595
 30
0.0
  0
VERTEX
  5
1E6
  8
LAYER_1
 10
85.44958020705418
 20
-894.5412013595646
 30
0.0
  0
VERTEX
  5
1E7
  8
LAYER_1
 10
85.3148264714333
 20
-894.6702153940331
 30
0.0
  0
VERTEX
  5
1E8
  8
LAYER_1
 10
85.20316445807723
 20
-894.8017493388468
 30
0.0
  0
VERTEX
  5
1E9
  8
LAYER_1
 10
85.11522248562089
 20
-894.9356323712875
 30
0.0
  0
VERTEX
  5
1EA
  8
LAYER_1
 10
85.05162887269925
 20
-895.0716936686368
 30
0.0
  0
VERTEX
  5
1EB
  8
LAYER_1
 10
85.01301193794731
 20
-895.209762408177
 30
0.0
  0
VERTEX
  5
1EC
  8
LAYER_1
 10
85.0
 20
-895.3496677671897
 30
0.0
  0
SEQEND
  5
1ED
  8
LAYER_1
  0
POLYLINE
  5
59
  8
LAYER_1
 66
     1
 10
0.0
 20
0.0
 30
0.0
 70
     1
  0
VERTEX
  5
1EE
  8
LAYER_1
 10
-61.5
 20
-74.0
 30
0.0
  0
VERTEX
  5
1EF
  8
LAYER_1
 10
61.5
 20
-74.0
 30
0.0
  0
VERTEX
  5
1F0
  8
LAYER_1
 10
61.5
 20
74.0
 30
0.0
  0
VERTEX
  5
1F1
  8
LAYER_1
 10
-61.5
 20
74.0
 30
0.0
  0
SEQEND
  5
1F2
  8
LAYER_1
  0
POLYLINE
  5
5A
  8
LAYER_1
 66
     1
 10
0.0
 20
0.0
 30
0.0
 70
     1
  0
VERTEX
  5
1F3
  8
LAYER_1
 10
0.0
 20
2.5
 30
0.0
 42
0.4142135623730951
  0
VERTEX
  5
1F4
  8
LAYER_1
 10
-2.5
 20
0.0
 30
0.0
 42
0.4142135623730951
  0
VERTEX
  5
1F5
  8
LAYER_1
 10
0.0
 20
-2.5
 30
0.0
 42
0.4142135623730951
  0
VERTEX
  5
1F6
  8
LAYER_1
 10
2.5
 20
0.0
 30
0.0
 42
0.4142135623730951
  0
SEQEND
  5
1F7
  8
LAYER_1
  0
POLYLINE
  5
5B
  8
LAYER_1
 66
     1
 10
0.0
 20
0.0
 30
0.0
 70
     1
  0
VERTEX
  5
1F8
  8
LAYER_1
 10
133.6810417690416
 20
71.35000000000002
 30
0.0
 42
-0.4142135623730951
  0
VERTEX
  5
1F9
  8
LAYER_1
 10
135.1810417690416
 20
69.85000000000002
 30
0.0
 42
-0.4142135623730951
  0
VERTEX
  5
1FA
  8
LAYER_1
 10
133.6810417690416
 20
68.35000000000002
 30
0.0
  0
VERTEX
  5
1FB
  8
LAYER_1
 10
105.5726191646192
 20
68.35000000000002
 30
0.0
 42
-0.4142135623730951
  0
VERTEX
  5
1FC
  8
LAYER_1
 10
104.0726191646192
 20
69.85000000000002
 30
0.0
 42
-0.4142135623730951
  0
VERTEX
  5
1FD
  8
LAYER_1
 10
105.5726191646192
 20
71.35000000000002
 30
0.0
  0
SEQEND
  5
1FE
  8
LAYER_1
  0
POLYLINE
  5
5C
  8
LAYER_1
 66
     1
 10
0.0
 20
0.0
 30
0.0
 70
     1
  0
VERTEX
  5
1FF
  8
LAYER_1
 10
212.9310417690416
 20
71.35000000000002
 30
0.0
 42
-0.4142135623730951
  0
VERTEX
  5
200
  8
LAYER_1
 10
214.4310417690416
 20
69.85000000000002
 30
0.0
 42
-0.4142135623730951
  0
VERTEX
  5
201
  8
LAYER_1
 10
212.9310417690416
 20
68.35000000000002
 30
0.0
  0
VERTEX
  5
202
  8
LAYER_1
 10
184.8226191646192
 20
68.35000000000002
 30
0.0
 42
-0.4142135623730951
  0
VERTEX
  5
203
  8
LAYER_1
 10
183.3226191646192
 20
69.85000000000002
 30
0.0
 42
-0.4142135623730951
  0
VERTEX
  5
204
  8
LAYER_1
 10
184.8226191646192
 20
71.35000000000002
 30
0.0
  0
SEQEND
  5
205
  8
LAYER_1
  0
POLYLINE
  5
5D
  8
LAYER_1
 66
     1
 10
0.0
 20
0.0
 30
0.0
 70
     1
  0
VERTEX
  5
206
  8
LAYER_1
 10
133.6810417690416
 20
-68.35
 30
0.0
 42
-0.4142135623730951
  0
VERTEX
  5
207
  8
LAYER_1
 10
135.1810417690416
 20
-69.85
 30
0.0
 42
-0.4142135623730951
  0
VERTEX
  5
208
  8
LAYER_1
 10
133.6810417690416
 20
-71.35
 30
0.0
  0
VERTEX
  5
209
  8
LAYER_1
 10
105.5726191646192
 20
-71.35
 30
0.0
 42
-0.4142135623730951
  0
VERTEX
  5
20A
  8
LAYER_1
 10
104.0726191646192
 20
-69.85
 30
0.0
 42
-0.4142135623730951
  0
VERTEX
  5
20B
  8
LAYER_1
 10
105.5726191646192
 20
-68.35
 30
0.0
  0
SEQEND
  5
20C
  8
LAYER_1
  0
POLYLINE
  5
5E
  8
LAYER_1
 66
     1
 10
0.0
 20
0.0
 30
0.0
 70
     1
  0
VERTEX
  5
20D
  8
LAYER_1
 10
212.9310417690416
 20
-68.35
 30
0.0
 42
-0.4142135623730951
  0
VERTEX
  5
20E
  8
LAYER_1
 10
214.4310417690416
 20
-69.85
 30
0.0
 42
-0.4142135623730951
  0
VERTEX
  5
20F
  8
LAYER_1
 10
212.9310417690416
 20
-71.35
 30
0.0
  0
VERTEX
  5
210
  8
LAYER_1
 10
184.8226191646192
 20
-71.35
 30
0.0
 42
-0.4142135623730951
  0
VERTEX
  5
211
  8
LAYER_1
 10
183.3226191646192
 20
-69.85
 30
0.0
 42
-0.4142135623730951
  0
VERTEX
  5
212
  8
LAYER_1
 10
184.8226191646192
 20
-68.35
 30
0.0
  0
SEQEND
  5
213
  8
LAYER_1
  0
POLYLINE
  5
5F
  8
LAYER_1
 66
     1
 10
0.0
 20
0.0
 30
0.0
 70
     1
  0
VERTEX
  5
214
  8
LAYER_1
 10
61.5
 20
-74.0
 30
0.0
  0
VERTEX
  5
215
  8
LAYER_1
 10
264.3
 20
-74.0
 30
0.0
  0
VERTEX
  5
216
  8
LAYER_1
 10
264.3
 20
74.0
 30
0.0
  0
VERTEX
  5
217
  8
LAYER_1
 10
61.5
 20
74.0
 30
0.0
  0
SEQEND
  5
218
  8
LAYER_1
  0
POLYLINE
  5
60
  8
LAYER_1
 66
     1
 10
0.0
 20
0.0
 30
0.0
 70
     1
  0
VERTEX
  5
219
  8
LAYER_1
 10
61.5
 20
-82.0
 30
0.0
 42
0.4142135623730951
  0
VERTEX
  5
21A
  8
LAYER_1
 10
64.5
 20
-85.0
 30
0.0
  0
VERTEX
  5
21B
  8
LAYER_1
 10
68.5
 20
-85.0
 30
0.0
 42
0.4142135623730951
  0
VERTEX
  5
21C
  8
LAYER_1
 10
71.5
 20
-82.0
 30
0.0
  0
VERTEX
  5
21D
  8
LAYER_1
 10
71.5
 20
82.0
 30
0.0
 42
0.4142135623730951
  0
VERTEX
  5
21E
  8
LAYER_1
 10
68.5
 20
85.0
 30
0.0
  0
VERTEX
  5
21F
  8
LAYER_1
 10
64.5
 20
85.0
 30
0.0
 42
0.4142135623730951
  0
VERTEX
  5
220
  8
LAYER_1
 10
61.5
 20
82.0
 30
0.0
  0
SEQEND
  5
221
  8
LAYER_1
  0
POLYLINE
  5
61
  8
LAYER_1
 66
     1
 10
0.0
 20
0.0
 30
0.0
 70
     1
  0
VERTEX
  5
222
  8
LAYER_1
 10
254.3
 20
-82.0
 30
0.0
 42
0.4142135623730951
  0
VERTEX
  5
223
  8
LAYER_1
 10
257.3
 20
-85.0
 30
0.0
  0
VERTEX
  5
224
  8
LAYER_1
 10
261.3
 20
-85.0
 30
0.0
 42
0.4142135623730951
  0
VERTEX
  5
225
  8
LAYER_1
 10
264.3
 20
-82.0
 30
0.0
  0
VERTEX
  5
226
  8
LAYER_1
 10
264.3
 20
82.0
 30
0.0
 42
0.4142135623730951
  0
VERTEX
  5
227
  8
LAYER_1
 10
261.3
 20
85.0
 30
0.0
  0
VERTEX
  5
228
  8
LAYER_1
 10
257.3
 20
85.0
 30
0.0
 42
0.4142135623730951
  0
VERTEX
  5
229
  8
LAYER_1
 10
254.3
 20
82.0
 30
0.0
  0
SEQEND
  5
22A
  8
LAYER_1
  0
POLYLINE
  5
62
  8
LAYER_1
 66
     1
 10
0.0
 20
0.0
 30
0.0
 70
     1
  0
VERTEX
  5
22B
  8
LAYER_1
 10
66.5
 20
80.5
 30
0.0
 42
0.4142135623730951
  0
VERTEX
  5
22C
  8
LAYER_1
 10
65.0
 20
79.0
 30
0.0
 42
0.4142135623730951
  0
VERTEX
  5
22D
  8
LAYER_1
 10
66.5
 20
77.5
 30
0.0
 42
0.4142135623730951
  0
VERTEX
  5
22E
  8
LAYER_1
 10
68.0
 20
79.0
 30
0.0
 42
0.4142135623730951
  0
SEQEND
  5
22F
  8
LAYER_1
  0
POLYLINE
  5
63
  8
LAYER_1
 66
     1
 10
0.0
 20
0.0
 30
0.0
 70
     1
  0
VERTEX
  5
230
  8
LAYER_1
 10
259.3
 20
80.5
 30
0.0
 42
0.4142135623730951
  0
VERTEX
  5
231
  8
LAYER_1
 10
257.8
 20
79.0
 30
0.0
 42
0.4142135623730951
  0
VERTEX
  5
232
  8
LAYER_1
 10
259.3
 20
77.5
 30
0.0
 42
0.4142135623730951
  0
VERTEX
  5
233
  8
LAYER_1
 10
260.8
 20
79.0
 30
0.0
 42
0.4142135623730951
  0
SEQEND
  5
234
  8
LAYER_1
  0
POLYLINE
  5
64
  8
LAYER_1
 66
     1
 10
0.0
 20
0.0
 30
0.0
 70
     1
  0
VERTEX
  5
235
  8
LAYER_1
 10
259.3
 20
-77.5
 30
0.0
 42
0.4142135623730951
  0
VERTEX
  5
236
  8
LAYER_1
 10
257.8
 20
-79.0
 30
0.0
 42
0.4142135623730951
  0
VERTEX
  5
237
  8
LAYER_1
 10
259.3
 20
-80.5
 30
0.0
 42
0.4142135623730951
  0
VERTEX
  5
238
  8
LAYER_1
 10
260.8
 20
-79.0
 30
0.0
 42
0.4142135623730951
  0
SEQEND
  5
239
  8
LAYER_1
  0
POLYLINE
  5
65
  8
LAYER_1
 66
     1
 10
0.0
 20
0.0
 30
0.0
 70
     1
  0
VERTEX
  5
23A
  8
LAYER_1
 10
66.5
 20
-77.5
 30
0.0
 42
0.4142135623730951
  0
VERTEX
  5
23B
  8
LAYER_1
 10
65.0
 20
-79.0
 30
0.0
 42
0.4142135623730951
  0
VERTEX
  5
23C
  8
LAYER_1
 10
66.5
 20
-80.5
 30
0.0
 42
0.4142135623730951
  0
VERTEX
  5
23D
  8
LAYER_1
 10
68.0
 20
-79.0
 30
0.0
 42
0.4142135623730951
  0
SEQEND
  5
23E
  8
LAYER_1
  0
POLYLINE
  5
66
  8
LAYER_1
 66
     1
 10
0.0
 20
0.0
 30
0.0
 70
     1
  0
VERTEX
  5
23F
  8
LAYER_1
 10
85.0
 20
-25.0
 30
0.0
 42
0.4142135623730951
  0
VERTEX
  5
240
  8
LAYER_1
 10
95.0
 20
-35.0
 30
0.0
  0
VERTEX
  5
241
  8
LAYER_1
 10
225.0
 20
-35.0
 30
0.0
 42
0.4142135623730951
  0
VERTEX
  5
242
  8
LAYER_1
 10
235.0
 20
-25.0
 30
0.0
  0
VERTEX
  5
243
  8
LAYER_1
 10
235.0
 20
25.0
 30
0.0
 42
0.4142135623730951
  0
VERTEX
  5
244
  8
LAYER_1
 10
225.0
 20
35.0
 30
0.0
  0
VERTEX
  5
245
  8
LAYER_1
 10
95.0
 20
35.0
 30
0.0
 42
0.4142135623730951
  0
VERTEX
  5
246
  8
LAYER_1
 10
85.0
 20
25.0
 30
0.0
  0
SEQEND
  5
247
  8
LAYER_1
  0
POLYLINE
  5
67
  8
LAYER_1
 66
     1
 10
0.0
 20
0.0
 30
0.0
 70
     1
  0
VERTEX
  5
248
  8
LAYER_1
 10
85.0
 20
63.95519611213635
 30
0.0
  0
VERTEX
  5
249
  8
LAYER_1
 10
85.01301193794731
 20
63.81529075312374
 30
0.0
  0
VERTEX
  5
24A
  8
LAYER_1
 10
85.05162887269925
 20
63.67722201358362
 30
0.0
  0
VERTEX
  5
24B
  8
LAYER_1
 10
85.11522248562089
 20
63.54116071623415
 30
0.0
  0
VERTEX
  5
24C
  8
LAYER_1
 10
85.20316445807723
 20
63.4072776837935
 30
0.0
  0
VERTEX
  5
24D
  8
LAYER_1
 10
85.3148264714333
 20
63.27574373897984
 30
0.0
  0
VERTEX
  5
24E
  8
LAYER_1
 10
85.44958020705418
 20
63.14672970451137
 30
0.0
  0
VERTEX
  5
24F
  8
LAYER_1
 10
85.60679734630487
 20
63.02040640310625
 30
0.0
  0
VERTEX
  5
250
  8
LAYER_1
 10
85.78584957055044
 20
62.89694465748264
 30
0.0
  0
VERTEX
  5
251
  8
LAYER_1
 10
85.9861085611559
 20
62.77651529035873
 30
0.0
  0
VERTEX
  5
252
  8
LAYER_1
 10
86.20694599948632
 20
62.6592891244527
 30
0.0
  0
VERTEX
  5
253
  8
LAYER_1
 10
86.44773356690669
 20
62.54543698248271
 30
0.0
  0
VERTEX
  5
254
  8
LAYER_1
 10
86.70784294478209
 20
62.43512968716692
 30
0.0
  0
VERTEX
  5
255
  8
LAYER_1
 10
86.98664581447753
 20
62.32853806122353
 30
0.0
  0
VERTEX
  5
256
  8
LAYER_1
 10
87.28351385735806
 20
62.22583292737071
 30
0.0
  0
VERTEX
  5
257
  8
LAYER_1
 10
87.59781875478872
 20
62.12718510832663
 30
0.0
  0
VERTEX
  5
258
  8
LAYER_1
 10
87.92893218813452
 20
62.03276542680946
 30
0.0
  0
VERTEX
  5
259
  8
LAYER_1
 10
88.27622583876054
 20
61.94274470553739
 30
0.0
  0
VERTEX
  5
25A
  8
LAYER_1
 10
88.63907138803178
 20
61.85729376722856
 30
0.0
  0
VERTEX
  5
25B
  8
LAYER_1
 10
89.0168405173133
 20
61.77658343460117
 30
0.0
  0
VERTEX
  5
25C
  8
LAYER_1
 10
89.40890490797014
 20
61.7007845303734
 30
0.0
  0
VERTEX
  5
25D
  8
LAYER_1
 10
90.23340619886989
 20
61.56460429798936
 30
0.0
  0
VERTEX
  5
25E
  8
LAYER_1
 10
91.10754871165133
 20
61.45011965182184
 30
0.0
  0
VERTEX
  5
25F
  8
LAYER_1
 10
92.02630589723476
 20
61.35869717361624
 30
0.0
  0
VERTEX
  5
260
  8
LAYER_1
 10
92.98465120654049
 20
61.29170344511795
 30
0.0
  0
VERTEX
  5
261
  8
LAYER_1
 10
93.9775580904888
 20
61.25050504807236
 30
0.0
  0
VERTEX
  5
262
  8
LAYER_1
 10
95.0
 20
61.23646856422485
 30
0.0
  0
VERTEX
  5
263
  8
LAYER_1
 10
225.0
 20
61.23646856422485
 30
0.0
  0
VERTEX
  5
264
  8
LAYER_1
 10
226.0224419095112
 20
61.25050504807236
 30
0.0
  0
VERTEX
  5
265
  8
LAYER_1
 10
227.0153487934595
 20
61.29170344511795
 30
0.0
  0
VERTEX
  5
266
  8
LAYER_1
 10
227.9736941027652
 20
61.35869717361624
 30
0.0
  0
VERTEX
  5
267
  8
LAYER_1
 10
228.8924512883486
 20
61.45011965182184
 30
0.0
  0
VERTEX
  5
268
  8
LAYER_1
 10
229.7665938011301
 20
61.56460429798936
 30
0.0
  0
VERTEX
  5
269
  8
LAYER_1
 10
230.5910950920298
 20
61.7007845303734
 30
0.0
  0
VERTEX
  5
26A
  8
LAYER_1
 10
230.9831594826867
 20
61.77658343460117
 30
0.0
  0
VERTEX
  5
26B
  8
LAYER_1
 10
231.3609286119682
 20
61.85729376722856
 30
0.0
  0
VERTEX
  5
26C
  8
LAYER_1
 10
231.7237741612395
 20
61.94274470553739
 30
0.0
  0
VERTEX
  5
26D
  8
LAYER_1
 10
232.0710678118655
 20
62.03276542680946
 30
0.0
  0
VERTEX
  5
26E
  8
LAYER_1
 10
232.4021812452113
 20
62.12718510832663
 30
0.0
  0
VERTEX
  5
26F
  8
LAYER_1
 10
232.7164861426419
 20
62.22583292737071
 30
0.0
  0
VERTEX
  5
270
  8
LAYER_1
 10
233.0133541855225
 20
62.32853806122353
 30
0.0
  0
VERTEX
  5
271
  8
LAYER_1
 10
233.2921570552179
 20
62.43512968716692
 30
0.0
  0
VERTEX
  5
272
  8
LAYER_1
 10
233.5522664330933
 20
62.54543698248271
 30
0.0
  0
VERTEX
  5
273
  8
LAYER_1
 10
233.7930540005137
 20
62.6592891244527
 30
0.0
  0
VERTEX
  5
274
  8
LAYER_1
 10
234.0138914388441
 20
62.77651529035873
 30
0.0
  0
VERTEX
  5
275
  8
LAYER_1
 10
234.2141504294495
 20
62.89694465748264
 30
0.0
  0
VERTEX
  5
276
  8
LAYER_1
 10
234.3932026536951
 20
63.02040640310625
 30
0.0
  0
VERTEX
  5
277
  8
LAYER_1
 10
234.5504197929458
 20
63.14672970451137
 30
0.0
  0
VERTEX
  5
278
  8
LAYER_1
 10
234.6851735285667
 20
63.27574373897984
 30
0.0
  0
VERTEX
  5
279
  8
LAYER_1
 10
234.7968355419228
 20
63.4072776837935
 30
0.0
  0
VERTEX
  5
27A
  8
LAYER_1
 10
234.8847775143792
 20
63.54116071623415
 30
0.0
  0
VERTEX
  5
27B
  8
LAYER_1
 10
234.9483711273007
 20
63.67722201358362
 30
0.0
  0
VERTEX
  5
27C
  8
LAYER_1
 10
234.9869880620527
 20
63.81529075312374
 30
0.0
  0
VERTEX
  5
27D
  8
LAYER_1
 10
235.0
 20
63.95519611213635
 30
0.0
  0
VERTEX
  5
27E
  8
LAYER_1
 10
235.0
 20
77.54883385169396
 30
0.0
  0
VERTEX
  5
27F
  8
LAYER_1
 10
234.9869880620527
 20
77.68873921070656
 30
0.0
  0
VERTEX
  5
280
  8
LAYER_1
 10
234.9483711273007
 20
77.82680795024667
 30
0.0
  0
VERTEX
  5
281
  8
LAYER_1
 10
234.8847775143792
 20
77.96286924759616
 30
0.0
  0
VERTEX
  5
282
  8
LAYER_1
 10
234.7968355419228
 20
78.09675228003681
 30
0.0
  0
VERTEX
  5
283
  8
LAYER_1
 10
234.6851735285667
 20
78.22828622485045
 30
0.0
  0
VERTEX
  5
284
  8
LAYER_1
 10
234.5504197929458
 20
78.35730025931892
 30
0.0
  0
VERTEX
  5
285
  8
LAYER_1
 10
234.3932026536951
 20
78.48362356072404
 30
0.0
  0
VERTEX
  5
286
  8
LAYER_1
 10
234.2141504294495
 20
78.60708530634766
 30
0.0
  0
VERTEX
  5
287
  8
LAYER_1
 10
234.0138914388441
 20
78.72751467347157
 30
0.0
  0
VERTEX
  5
288
  8
LAYER_1
 10
233.7930540005137
 20
78.84474083937761
 30
0.0
  0
VERTEX
  5
289
  8
LAYER_1
 10
233.5522664330933
 20
78.9585929813476
 30
0.0
  0
VERTEX
  5
28A
  8
LAYER_1
 10
233.2921570552179
 20
79.06890027666338
 30
0.0
  0
VERTEX
  5
28B
  8
LAYER_1
 10
233.0133541855225
 20
79.17549190260678
 30
0.0
  0
VERTEX
  5
28C
  8
LAYER_1
 10
232.7164861426419
 20
79.2781970364596
 30
0.0
  0
VERTEX
  5
28D
  8
LAYER_1
 10
232.4021812452113
 20
79.37684485550366
 30
0.0
  0
VERTEX
  5
28E
  8
LAYER_1
 10
232.0710678118655
 20
79.47126453702084
 30
0.0
  0
VERTEX
  5
28F
  8
LAYER_1
 10
231.7237741612395
 20
79.56128525829293
 30
0.0
  0
VERTEX
  5
290
  8
LAYER_1
 10
231.3609286119682
 20
79.64673619660175
 30
0.0
  0
VERTEX
  5
291
  8
LAYER_1
 10
230.9831594826867
 20
79.72744652922913
 30
0.0
  0
VERTEX
  5
292
  8
LAYER_1
 10
230.5910950920298
 20
79.80324543345691
 30
0.0
  0
VERTEX
  5
293
  8
LAYER_1
 10
229.7665938011301
 20
79.93942566584096
 30
0.0
  0
VERTEX
  5
294
  8
LAYER_1
 10
228.8924512883486
 20
80.05391031200847
 30
0.0
  0
VERTEX
  5
295
  8
LAYER_1
 10
227.9736941027652
 20
80.14533279021407
 30
0.0
  0
VERTEX
  5
296
  8
LAYER_1
 10
227.0153487934595
 20
80.21232651871236
 30
0.0
  0
VERTEX
  5
297
  8
LAYER_1
 10
226.0224419095112
 20
80.25352491575795
 30
0.0
  0
VERTEX
  5
298
  8
LAYER_1
 10
225.0
 20
80.26756139960546
 30
0.0
  0
VERTEX
  5
299
  8
LAYER_1
 10
95.0
 20
80.26756139960546
 30
0.0
  0
VERTEX
  5
29A
  8
LAYER_1
 10
93.9775580904888
 20
80.25352491575795
 30
0.0
  0
VERTEX
  5
29B
  8
LAYER_1
 10
92.98465120654049
 20
80.21232651871236
 30
0.0
  0
VERTEX
  5
29C
  8
LAYER_1
 10
92.02630589723476
 20
80.14533279021407
 30
0.0
  0
VERTEX
  5
29D
  8
LAYER_1
 10
91.10754871165133
 20
80.05391031200847
 30
0.0
  0
VERTEX
  5
29E
  8
LAYER_1
 10
90.23340619886989
 20
79.93942566584096
 30
0.0
  0
VERTEX
  5
29F
  8
LAYER_1
 10
89.40890490797014
 20
79.80324543345691
 30
0.0
  0
VERTEX
  5
2A0
  8
LAYER_1
 10
89.0168405173133
 20
79.72744652922913
 30
0.0
  0
VERTEX
  5
2A1
  8
LAYER_1
 10
88.63907138803178
 20
79.64673619660175
 30
0.0
  0
VERTEX
  5
2A2
  8
LAYER_1
 10
88.27622583876054
 20
79.56128525829293
 30
0.0
  0
VERTEX
  5
2A3
  8
LAYER_1
 10
87.92893218813452
 20
79.47126453702084
 30
0.0
  0
VERTEX
  5
2A4
  8
LAYER_1
 10
87.59781875478872
 20
79.37684485550366
 30
0.0
  0
VERTEX
  5
2A5
  8
LAYER_1
 10
87.28351385735806
 20
79.2781970364596
 30
0.0
  0
VERTEX
  5
2A6
  8
LAYER_1
 10
86.98664581447753
 20
79.17549190260678
 30
0.0
  0
VERTEX
  5
2A7
  8
LAYER_1
 10
86.70784294478209
 20
79.06890027666338
 30
0.0
  0
VERTEX
  5
2A8
  8
LAYER_1
 10
86.44773356690669
 20
78.9585929813476
 30
0.0
  0
VERTEX
  5
2A9
  8
LAYER_1
 10
86.20694599948632
 20
78.84474083937761
 30
0.0
  0
VERTEX
  5
2AA
  8
LAYER_1
 10
85.9861085611559
 20
78.72751467347157
 30
0.0
  0
VERTEX
  5
2AB
  8
LAYER_1
 10
85.78584957055044
 20
78.60708530634766
 30
0.0
  0
VERTEX
  5
2AC
  8
LAYER_1
 10
85.60679734630487
 20
78.48362356072404
 30
0.0
  0
VERTEX
  5
2AD
  8
LAYER_1
 10
85.44958020705418
 20
78.35730025931892
 30
0.0
  0
VERTEX
  5
2AE
  8
LAYER_1
 10
85.3148264714333
 20
78.22828622485045
 30
0.0
  0
VERTEX
  5
2AF
  8
LAYER_1
 10
85.20316445807723
 20
78.09675228003681
 30
0.0
  0
VERTEX
  5
2B0
  8
LAYER_1
 10
85.11522248562089
 20
77.96286924759616
 30
0.0
  0
VERTEX
  5
2B1
  8
LAYER_1
 10
85.05162887269925
 20
77.82680795024667
 30
0.0
  0
VERTEX
  5
2B2
  8
LAYER_1
 10
85.01301193794731
 20
77.68873921070656
 30
0.0
  0
VERTEX
  5
2B3
  8
LAYER_1
 10
85.0
 20
77.54883385169396
 30
0.0
  0
SEQEND
  5
2B4
  8
LAYER_1
  0
POLYLINE
  5
68
  8
LAYER_1
 66
     1
 10
0.0
 20
0.0
 30
0.0
 70
     1
  0
VERTEX
  5
2B5
  8
LAYER_1
 10
85.0
 20
-77.5483652874691
 30
0.0
  0
VERTEX
  5
2B6
  8
LAYER_1
 10
85.01301193794731
 20
-77.6882706464817
 30
0.0
  0
VERTEX
  5
2B7
  8
LAYER_1
 10
85.05162887269925
 20
-77.82633938602181
 30
0.0
  0
VERTEX
  5
2B8
  8
LAYER_1
 10
85.11522248562089
 20
-77.9624006833713
 30
0.0
  0
VERTEX
  5
2B9
  8
LAYER_1
 10
85.20316445807723
 20
-78.09628371581195
 30
0.0
  0
VERTEX
  5
2BA
  8
LAYER_1
 10
85.3148264714333
 20
-78.22781766062559
 30
0.0
  0
VERTEX
  5
2BB
  8
LAYER_1
 10
85.44958020705418
 20
-78.35683169509406
 30
0.0
  0
VERTEX
  5
2BC
  8
LAYER_1
 10
85.60679734630487
 20
-78.48315499649918
 30
0.0
  0
VERTEX
  5
2BD
  8
LAYER_1
 10
85.78584957055044
 20
-78.6066167421228
 30
0.0
  0
VERTEX
  5
2BE
  8
LAYER_1
 10
85.9861085611559
 20
-78.72704610924671
 30
0.0
  0
VERTEX
  5
2BF
  8
LAYER_1
 10
86.20694599948632
 20
-78.84427227515275
 30
0.0
  0
VERTEX
  5
2C0
  8
LAYER_1
 10
86.44773356690669
 20
-78.95812441712275
 30
0.0
  0
VERTEX
  5
2C1
  8
LAYER_1
 10
86.70784294478209
 20
-79.06843171243852
 30
0.0
  0
VERTEX
  5
2C2
  8
LAYER_1
 10
86.98664581447753
 20
-79.17502333838192
 30
0.0
  0
VERTEX
  5
2C3
  8
LAYER_1
 10
87.28351385735806
 20
-79.27772847223474
 30
0.0
  0
VERTEX
  5
2C4
  8
LAYER_1
 10
87.59781875478872
 20
-79.3763762912788
 30
0.0
  0
VERTEX
  5
2C5
  8
LAYER_1
 10
87.92893218813452
 20
-79.47079597279598
 30
0.0
  0
VERTEX
  5
2C6
  8
LAYER_1
 10
88.27622583876054
 20
-79.56081669406807
 30
0.0
  0
VERTEX
  5
2C7
  8
LAYER_1
 10
88.63907138803178
 20
-79.64626763237689
 30
0.0
  0
VERTEX
  5
2C8
  8
LAYER_1
 10
89.0168405173133
 20
-79.72697796500427
 30
0.0
  0
VERTEX
  5
2C9
  8
LAYER_1
 10
89.40890490797014
 20
-79.80277686923205
 30
0.0
  0
VERTEX
  5
2CA
  8
LAYER_1
 10
90.23340619886989
 20
-79.9389571016161
 30
0.0
  0
VERTEX
  5
2CB
  8
LAYER_1
 10
91.10754871165133
 20
-80.05344174778361
 30
0.0
  0
VERTEX
  5
2CC
  8
LAYER_1
 10
92.02630589723476
 20
-80.14486422598921
 30
0.0
  0
VERTEX
  5
2CD
  8
LAYER_1
 10
92.98465120654049
 20
-80.2118579544875
 30
0.0
  0
VERTEX
  5
2CE
  8
LAYER_1
 10
93.9775580904888
 20
-80.25305635153309
 30
0.0
  0
VERTEX
  5
2CF
  8
LAYER_1
 10
95.0
 20
-80.2670928353806
 30
0.0
  0
VERTEX
  5
2D0
  8
LAYER_1
 10
225.0
 20
-80.2670928353806
 30
0.0
  0
VERTEX
  5
2D1
  8
LAYER_1
 10
226.0224419095112
 20
-80.25305635153309
 30
0.0
  0
VERTEX
  5
2D2
  8
LAYER_1
 10
227.0153487934595
 20
-80.2118579544875
 30
0.0
  0
VERTEX
  5
2D3
  8
LAYER_1
 10
227.9736941027652
 20
-80.14486422598921
 30
0.0
  0
VERTEX
  5
2D4
  8
LAYER_1
 10
228.8924512883486
 20
-80.05344174778361
 30
0.0
  0
VERTEX
  5
2D5
  8
LAYER_1
 10
229.7665938011301
 20
-79.9389571016161
 30
0.0
  0
VERTEX
  5
2D6
  8
LAYER_1
 10
230.5910950920298
 20
-79.80277686923205
 30
0.0
  0
VERTEX
  5
2D7
  8
LAYER_1
 10
230.9831594826867
 20
-79.72697796500427
 30
0.0
  0
VERTEX
  5
2D8
  8
LAYER_1
 10
231.3609286119682
 20
-79.64626763237689
 30
0.0
  0
VERTEX
  5
2D9
  8
LAYER_1
 10
231.7237741612395
 20
-79.56081669406807
 30
0.0
  0
VERTEX
  5
2DA
  8
LAYER_1
 10
232.0710678118655
 20
-79.47079597279598
 30
0.0
  0
VERTEX
  5
2DB
  8
LAYER_1
 10
232.4021812452113
 20
-79.3763762912788
 30
0.0
  0
VERTEX
  5
2DC
  8
LAYER_1
 10
232.7164861426419
 20
-79.27772847223474
 30
0.0
  0
VERTEX
  5
2DD
  8
LAYER_1
 10
233.0133541855225
 20
-79.17502333838192
 30
0.0
  0
VERTEX
  5
2DE
  8
LAYER_1
 10
233.2921570552179
 20
-79.06843171243852
 30
0.0
  0
VERTEX
  5
2DF
  8
LAYER_1
 10
233.5522664330933
 20
-78.95812441712275
 30
0.0
  0
VERTEX
  5
2E0
  8
LAYER_1
 10
233.7930540005137
 20
-78.84427227515275
 30
0.0
  0
VERTEX
  5
2E1
  8
LAYER_1
 10
234.0138914388441
 20
-78.72704610924671
 30
0.0
  0
VERTEX
  5
2E2
  8
LAYER_1
 10
234.2141504294495
 20
-78.6066167421228
 30
0.0
  0
VERTEX
  5
2E3
  8
LAYER_1
 10
234.3932026536951
 20
-78.48315499649918
 30
0.0
  0
VERTEX
  5
2E4
  8
LAYER_1
 10
234.5504197929458
 20
-78.35683169509406
 30
0.0
  0
VERTEX
  5
2E5
  8
LAYER_1
 10
234.6851735285667
 20
-78.22781766062559
 30
0.0
  0
VERTEX
  5
2E6
  8
LAYER_1
 10
234.7968355419228
 20
-78.09628371581195
 30
0.0
  0
VERTEX
  5
2E7
  8
LAYER_1
 10
234.8847775143792
 20
-77.9624006833713
 30
0.0
  0
VERTEX
  5
2E8
  8
LAYER_1
 10
234.9483711273007
 20
-77.82633938602181
 30
0.0
  0
VERTEX
  5
2E9
  8
LAYER_1
 10
234.9869880620527
 20
-77.6882706464817
 30
0.0
  0
VERTEX
  5
2EA
  8
LAYER_1
 10
235.0
 20
-77.5483652874691
 30
0.0
  0
VERTEX
  5
2EB
  8
LAYER_1
 10
235.0
 20
-63.95472754791149
 30
0.0
  0
VERTEX
  5
2EC
  8
LAYER_1
 10
234.9869880620527
 20
-63.81482218889888
 30
0.0
  0
VERTEX
  5
2ED
  8
LAYER_1
 10
234.9483711273007
 20
-63.67675344935876
 30
0.0
  0
VERTEX
  5
2EE
  8
LAYER_1
 10
234.8847775143792
 20
-63.54069215200929
 30
0.0
  0
VERTEX
  5
2EF
  8
LAYER_1
 10
234.7968355419228
 20
-63.40680911956863
 30
0.0
  0
VERTEX
  5
2F0
  8
LAYER_1
 10
234.6851735285667
 20
-63.27527517475498
 30
0.0
  0
VERTEX
  5
2F1
  8
LAYER_1
 10
234.5504197929458
 20
-63.14626114028651
 30
0.0
  0
VERTEX
  5
2F2
  8
LAYER_1
 10
234.3932026536951
 20
-63.01993783888139
 30
0.0
  0
VERTEX
  5
2F3
  8
LAYER_1
 10
234.2141504294495
 20
-62.89647609325778
 30
0.0
  0
VERTEX
  5
2F4
  8
LAYER_1
 10
234.0138914388441
 20
-62.77604672613387
 30
0.0
  0
VERTEX
  5
2F5
  8
LAYER_1
 10
233.7930540005137
 20
-62.65882056022784
 30
0.0
  0
VERTEX
  5
2F6
  8
LAYER_1
 10
233.5522664330933
 20
-62.54496841825785
 30
0.0
  0
VERTEX
  5
2F7
  8
LAYER_1
 10
233.2921570552179
 20
-62.43466112294206
 30
0.0
  0
VERTEX
  5
2F8
  8
LAYER_1
 10
233.0133541855225
 20
-62.32806949699867
 30
0.0
  0
VERTEX
  5
2F9
  8
LAYER_1
 10
232.7164861426419
 20
-62.22536436314585
 30
0.0
  0
VERTEX
  5
2FA
  8
LAYER_1
 10
232.4021812452113
 20
-62.12671654410177
 30
0.0
  0
VERTEX
  5
2FB
  8
LAYER_1
 10
232.0710678118655
 20
-62.0322968625846
 30
0.0
  0
VERTEX
  5
2FC
  8
LAYER_1
 10
231.7237741612395
 20
-61.94227614131253
 30
0.0
  0
VERTEX
  5
2FD
  8
LAYER_1
 10
231.3609286119682
 20
-61.8568252030037
 30
0.0
  0
VERTEX
  5
2FE
  8
LAYER_1
 10
230.9831594826867
 20
-61.77611487037631
 30
0.0
  0
VERTEX
  5
2FF
  8
LAYER_1
 10
230.5910950920298
 20
-61.70031596614854
 30
0.0
  0
VERTEX
  5
300
  8
LAYER_1
 10
229.7665938011301
 20
-61.5641357337645
 30
0.0
  0
VERTEX
  5
301
  8
LAYER_1
 10
228.8924512883486
 20
-61.44965108759698
 30
0.0
  0
VERTEX
  5
302
  8
LAYER_1
 10
227.9736941027652
 20
-61.35822860939138
 30
0.0
  0
VERTEX
  5
303
  8
LAYER_1
 10
227.0153487934595
 20
-61.29123488089309
 30
0.0
  0
VERTEX
  5
304
  8
LAYER_1
 10
226.0224419095112
 20
-61.2500364838475
 30
0.0
  0
VERTEX
  5
305
  8
LAYER_1
 10
225.0
 20
-61.23599999999999
 30
0.0
  0
VERTEX
  5
306
  8
LAYER_1
 10
95.0
 20
-61.23599999999999
 30
0.0
  0
VERTEX
  5
307
  8
LAYER_1
 10
93.9775580904888
 20
-61.2500364838475
 30
0.0
  0
VERTEX
  5
308
  8
LAYER_1
 10
92.98465120654049
 20
-61.29123488089309
 30
0.0
  0
VERTEX
  5
309
  8
LAYER_1
 10
92.02630589723476
 20
-61.35822860939138
 30
0.0
  0
VERTEX
  5
30A
  8
LAYER_1
 10
91.10754871165133
 20
-61.44965108759698
 30
0.0
  0
VERTEX
  5
30B
  8
LAYER_1
 10
90.23340619886989
 20
-61.5641357337645
 30
0.0
  0
VERTEX
  5
30C
  8
LAYER_1
 10
89.40890490797014
 20
-61.70031596614854
 30
0.0
  0
VERTEX
  5
30D
  8
LAYER_1
 10
89.0168405173133
 20
-61.77611487037631
 30
0.0
  0
VERTEX
  5
30E
  8
LAYER_1
 10
88.63907138803178
 20
-61.8568252030037
 30
0.0
  0
VERTEX
  5
30F
  8
LAYER_1
 10
88.27622583876054
 20
-61.94227614131253
 30
0.0
  0
VERTEX
  5
310
  8
LAYER_1
 10
87.92893218813452
 20
-62.0322968625846
 30
0.0
  0
VERTEX
  5
311
  8
LAYER_1
 10
87.59781875478872
 20
-62.12671654410177
 30
0.0
  0
VERTEX
  5
312
  8
LAYER_1
 10
87.28351385735806
 20
-62.22536436314585
 30
0.0
  0
VERTEX
  5
313
  8
LAYER_1
 10
86.98664581447753
 20
-62.32806949699867
 30
0.0
  0
VERTEX
  5
314
  8
LAYER_1
 10
86.70784294478209
 20
-62.43466112294206
 30
0.0
  0
VERTEX
  5
315
  8
LAYER_1
 10
86.44773356690669
 20
-62.54496841825785
 30
0.0
  0
VERTEX
  5
316
  8
LAYER_1
 10
86.20694599948632
 20
-62.65882056022784
 30
0.0
  0
VERTEX
  5
317
  8
LAYER_1
 10
85.9861085611559
 20
-62.77604672613387
 30
0.0
  0
VERTEX
  5
318
  8
LAYER_1
 10
85.78584957055044
 20
-62.89647609325778
 30
0.0
  0
VERTEX
  5
319
  8
LAYER_1
 10
85.60679734630487
 20
-63.01993783888139
 30
0.0
  0
VERTEX
  5
31A
  8
LAYER_1
 10
85.44958020705418
 20
-63.14626114028651
 30
0.0
  0
VERTEX
  5
31B
  8
LAYER_1
 10
85.3148264714333
 20
-63.27527517475498
 30
0.0
  0
VERTEX
  5
31C
  8
LAYER_1
 10
85.20316445807723
 20
-63.40680911956863
 30
0.0
  0
VERTEX
  5
31D
  8
LAYER_1
 10
85.11522248562089
 20
-63.54069215200929
 30
0.0
  0
VERTEX
  5
31E
  8
LAYER_1
 10
85.05162887269925
 20
-63.67675344935876
 30
0.0
  0
VERTEX
  5
31F
  8
LAYER_1
 10
85.01301193794731
 20
-63.81482218889888
 30
0.0
  0
VERTEX
  5
320
  8
LAYER_1
 10
85.0
 20
-63.95472754791149
 30
0.0
  0
SEQEND
  5
321
  8
LAYER_1
  0
POLYLINE
  5
69
  8
LAYER_1
 66
     1
 10
0.0
 20
0.0
 30
0.0
 70
     1
  0
VERTEX
  5
322
  8
LAYER_1
 10
0.0
 20
245.006142506139
 30
0.0
 42
0.4142135623730951
  0
VERTEX
  5
323
  8
LAYER_1
 10
-2.5
 20
242.506142506139
 30
0.0
 42
0.4142135623730951
  0
VERTEX
  5
324
  8
LAYER_1
 10
0.0
 20
240.006142506139
 30
0.0
 42
0.4142135623730951
  0
VERTEX
  5
325
  8
LAYER_1
 10
2.5
 20
242.506142506139
 30
0.0
 42
0.4142135623730951
  0
SEQEND
  5
326
  8
LAYER_1
  0
POLYLINE
  5
6A
  8
LAYER_1
 66
     1
 10
0.0
 20
0.0
 30
0.0
 70
     1
  0
VERTEX
  5
327
  8
LAYER_1
 10
133.6810417690416
 20
313.856142506139
 30
0.0
 42
-0.4142135623730951
  0
VERTEX
  5
328
  8
LAYER_1
 10
135.1810417690416
 20
312.356142506139
 30
0.0
 42
-0.4142135623730951
  0
VERTEX
  5
329
  8
LAYER_1
 10
133.6810417690416
 20
310.856142506139
 30
0.0
  0
VERTEX
  5
32A
  8
LAYER_1
 10
105.5726191646193
 20
310.856142506139
 30
0.0
 42
-0.4142135623730951
  0
VERTEX
  5
32B
  8
LAYER_1
 10
104.0726191646193
 20
312.356142506139
 30
0.0
 42
-0.4142135623730951
  0
VERTEX
  5
32C
  8
LAYER_1
 10
105.5726191646193
 20
313.856142506139
 30
0.0
  0
SEQEND
  5
32D
  8
LAYER_1
  0
POLYLINE
  5
6B
  8
LAYER_1
 66
     1
 10
0.0
 20
0.0
 30
0.0
 70
     1
  0
VERTEX
  5
32E
  8
LAYER_1
 10
212.9310417690416
 20
313.856142506139
 30
0.0
 42
-0.4142135623730951
  0
VERTEX
  5
32F
  8
LAYER_1
 10
214.4310417690416
 20
312.356142506139
 30
0.0
 42
-0.4142135623730951
  0
VERTEX
  5
330
  8
LAYER_1
 10
212.9310417690416
 20
310.856142506139
 30
0.0
  0
VERTEX
  5
331
  8
LAYER_1
 10
184.8226191646192
 20
310.856142506139
 30
0.0
 42
-0.4142135623730951
  0
VERTEX
  5
332
  8
LAYER_1
 10
183.3226191646192
 20
312.356142506139
 30
0.0
 42
-0.4142135623730951
  0
VERTEX
  5
333
  8
LAYER_1
 10
184.8226191646192
 20
313.856142506139
 30
0.0
  0
SEQEND
  5
334
  8
LAYER_1
  0
POLYLINE
  5
6C
  8
LAYER_1
 66
     1
 10
0.0
 20
0.0
 30
0.0
 70
     1
  0
VERTEX
  5
335
  8
LAYER_1
 10
133.6810417690416
 20
174.156142506139
 30
0.0
 42
-0.4142135623730951
  0
VERTEX
  5
336
  8
LAYER_1
 10
135.1810417690416
 20
172.656142506139
 30
0.0
 42
-0.4142135623730951
  0
VERTEX
  5
337
  8
LAYER_1
 10
133.6810417690416
 20
171.156142506139
 30
0.0
  0
VERTEX
  5
338
  8
LAYER_1
 10
105.5726191646193
 20
171.156142506139
 30
0.0
 42
-0.4142135623730951
  0
VERTEX
  5
339
  8
LAYER_1
 10
104.0726191646193
 20
172.656142506139
 30
0.0
 42
-0.4142135623730951
  0
VERTEX
  5
33A
  8
LAYER_1
 10
105.5726191646193
 20
174.156142506139
 30
0.0
  0
SEQEND
  5
33B
  8
LAYER_1
  0
POLYLINE
  5
6D
  8
LAYER_1
 66
     1
 10
0.0
 20
0.0
 30
0.0
 70
     1
  0
VERTEX
  5
33C
  8
LAYER_1
 10
212.9310417690416
 20
174.156142506139
 30
0.0
 42
-0.4142135623730951
  0
VERTEX
  5
33D
  8
LAYER_1
 10
214.4310417690416
 20
172.656142506139
 30
0.0
 42
-0.4142135623730951
  0
VERTEX
  5
33E
  8
LAYER_1
 10
212.9310417690416
 20
171.156142506139
 30
0.0
  0
VERTEX
  5
33F
  8
LAYER_1
 10
184.8226191646192
 20
171.156142506139
 30
0.0
 42
-0.4142135623730951
  0
VERTEX
  5
340
  8
LAYER_1
 10
183.3226191646192
 20
172.656142506139
 30
0.0
 42
-0.4142135623730951
  0
VERTEX
  5
341
  8
LAYER_1
 10
184.8226191646192
 20
174.156142506139
 30
0.0
  0
SEQEND
  5
342
  8
LAYER_1
  0
POLYLINE
  5
6E
  8
LAYER_1
 66
     1
 10
0.0
 20
0.0
 30
0.0
 70
     1
  0
VERTEX
  5
343
  8
LAYER_1
 10
66.5
 20
323.0061425061389
 30
0.0
 42
0.4142135623730951
  0
VERTEX
  5
344
  8
LAYER_1
 10
65.0
 20
321.5061425061389
 30
0.0
 42
0.4142135623730951
  0
VERTEX
  5
345
  8
LAYER_1
 10
66.5
 20
320.0061425061389
 30
0.0
 42
0.4142135623730951
  0
VERTEX
  5
346
  8
LAYER_1
 10
68.0
 20
321.5061425061389
 30
0.0
 42
0.4142135623730951
  0
SEQEND
  5
347
  8
LAYER_1
  0
POLYLINE
  5
6F
  8
LAYER_1
 66
     1
 10
0.0
 20
0.0
 30
0.0
 70
     1
  0
VERTEX
  5
348
  8
LAYER_1
 10
259.3
 20
323.0061425061389
 30
0.0
 42
0.4142135623730951
  0
VERTEX
  5
349
  8
LAYER_1
 10
257.8
 20
321.5061425061389
 30
0.0
 42
0.4142135623730951
  0
VERTEX
  5
34A
  8
LAYER_1
 10
259.3
 20
320.0061425061389
 30
0.0
 42
0.4142135623730951
  0
VERTEX
  5
34B
  8
LAYER_1
 10
260.8
 20
321.5061425061389
 30
0.0
 42
0.4142135623730951
  0
SEQEND
  5
34C
  8
LAYER_1
  0
POLYLINE
  5
70
  8
LAYER_1
 66
     1
 10
0.0
 20
0.0
 30
0.0
 70
     1
  0
VERTEX
  5
34D
  8
LAYER_1
 10
259.3
 20
165.006142506139
 30
0.0
 42
0.4142135623730951
  0
VERTEX
  5
34E
  8
LAYER_1
 10
257.8
 20
163.506142506139
 30
0.0
 42
0.4142135623730951
  0
VERTEX
  5
34F
  8
LAYER_1
 10
259.3
 20
162.006142506139
 30
0.0
 42
0.4142135623730951
  0
VERTEX
  5
350
  8
LAYER_1
 10
260.8
 20
163.506142506139
 30
0.0
 42
0.4142135623730951
  0
SEQEND
  5
351
  8
LAYER_1
  0
POLYLINE
  5
71
  8
LAYER_1
 66
     1
 10
0.0
 20
0.0
 30
0.0
 70
     1
  0
VERTEX
  5
352
  8
LAYER_1
 10
66.5
 20
165.006142506139
 30
0.0
 42
0.4142135623730951
  0
VERTEX
  5
353
  8
LAYER_1
 10
65.0
 20
163.506142506139
 30
0.0
 42
0.4142135623730951
  0
VERTEX
  5
354
  8
LAYER_1
 10
66.5
 20
162.006142506139
 30
0.0
 42
0.4142135623730951
  0
VERTEX
  5
355
  8
LAYER_1
 10
68.0
 20
163.506142506139
 30
0.0
 42
0.4142135623730951
  0
SEQEND
  5
356
  8
LAYER_1
  0
POLYLINE
  5
72
  8
LAYER_1
 66
     1
 10
0.0
 20
0.0
 30
0.0
 70
     1
  0
VERTEX
  5
357
  8
LAYER_1
 10
85.0
 20
217.506142506139
 30
0.0
 42
0.4142135623730951
  0
VERTEX
  5
358
  8
LAYER_1
 10
95.0
 20
207.506142506139
 30
0.0
  0
VERTEX
  5
359
  8
LAYER_1
 10
225.0
 20
207.506142506139
 30
0.0
 42
0.4142135623730951
  0
VERTEX
  5
35A
  8
LAYER_1
 10
235.0
 20
217.506142506139
 30
0.0
  0
VERTEX
  5
35B
  8
LAYER_1
 10
235.0
 20
267.506142506139
 30
0.0
 42
0.4142135623730951
  0
VERTEX
  5
35C
  8
LAYER_1
 10
225.0
 20
277.506142506139
 30
0.0
  0
VERTEX
  5
35D
  8
LAYER_1
 10
95.0
 20
277.506142506139
 30
0.0
 42
0.4142135623730951
  0
VERTEX
  5
35E
  8
LAYER_1
 10
85.0
 20
267.506142506139
 30
0.0
  0
SEQEND
  5
35F
  8
LAYER_1
  0
POLYLINE
  5
73
  8
LAYER_1
 66
     1
 10
0.0
 20
0.0
 30
0.0
 70
     1
  0
VERTEX
  5
360
  8
LAYER_1
 10
0.0
 20
422.4999999999939
 30
0.0
 42
0.4142135623730951
  0
VERTEX
  5
361
  8
LAYER_1
 10
-2.5
 20
419.9999999999939
 30
0.0
 42
0.4142135623730951
  0
VERTEX
  5
362
  8
LAYER_1
 10
0.0
 20
417.4999999999939
 30
0.0
 42
0.4142135623730951
  0
VERTEX
  5
363
  8
LAYER_1
 10
2.5
 20
419.9999999999939
 30
0.0
 42
0.4142135623730951
  0
SEQEND
  5
364
  8
LAYER_1
  0
POLYLINE
  5
74
  8
LAYER_1
 66
     1
 10
0.0
 20
0.0
 30
0.0
 70
     1
  0
VERTEX
  5
365
  8
LAYER_1
 10
66.5
 20
500.4999999999939
 30
0.0
 42
0.4142135623730951
  0
VERTEX
  5
366
  8
LAYER_1
 10
65.0
 20
498.9999999999939
 30
0.0
 42
0.4142135623730951
  0
VERTEX
  5
367
  8
LAYER_1
 10
66.5
 20
497.4999999999939
 30
0.0
 42
0.4142135623730951
  0
VERTEX
  5
368
  8
LAYER_1
 10
68.0
 20
498.9999999999939
 30
0.0
 42
0.4142135623730951
  0
SEQEND
  5
369
  8
LAYER_1
  0
POLYLINE
  5
75
  8
LAYER_1
 66
     1
 10
0.0
 20
0.0
 30
0.0
 70
     1
  0
VERTEX
  5
36A
  8
LAYER_1
 10
259.3
 20
500.4999999999939
 30
0.0
 42
0.4142135623730951
  0
VERTEX
  5
36B
  8
LAYER_1
 10
257.8
 20
498.9999999999939
 30
0.0
 42
0.4142135623730951
  0
VERTEX
  5
36C
  8
LAYER_1
 10
259.3
 20
497.4999999999939
 30
0.0
 42
0.4142135623730951
  0
VERTEX
  5
36D
  8
LAYER_1
 10
260.8
 20
498.9999999999939
 30
0.0
 42
0.4142135623730951
  0
SEQEND
  5
36E
  8
LAYER_1
  0
POLYLINE
  5
76
  8
LAYER_1
 66
     1
 10
0.0
 20
0.0
 30
0.0
 70
     1
  0
VERTEX
  5
36F
  8
LAYER_1
 10
259.3
 20
342.4999999999939
 30
0.0
 42
0.4142135623730951
  0
VERTEX
  5
370
  8
LAYER_1
 10
257.8
 20
340.9999999999939
 30
0.0
 42
0.4142135623730951
  0
VERTEX
  5
371
  8
LAYER_1
 10
259.3
 20
339.4999999999939
 30
0.0
 42
0.4142135623730951
  0
VERTEX
  5
372
  8
LAYER_1
 10
260.8
 20
340.9999999999939
 30
0.0
 42
0.4142135623730951
  0
SEQEND
  5
373
  8
LAYER_1
  0
POLYLINE
  5
77
  8
LAYER_1
 66
     1
 10
0.0
 20
0.0
 30
0.0
 70
     1
  0
VERTEX
  5
374
  8
LAYER_1
 10
66.5
 20
342.4999999999939
 30
0.0
 42
0.4142135623730951
  0
VERTEX
  5
375
  8
LAYER_1
 10
65.0
 20
340.9999999999939
 30
0.0
 42
0.4142135623730951
  0
VERTEX
  5
376
  8
LAYER_1
 10
66.5
 20
339.4999999999939
 30
0.0
 42
0.4142135623730951
  0
VERTEX
  5
377
  8
LAYER_1
 10
68.0
 20
340.9999999999939
 30
0.0
 42
0.4142135623730951
  0
SEQEND
  5
378
  8
LAYER_1
  0
POLYLINE
  5
78
  8
LAYER_1
 66
     1
 10
0.0
 20
0.0
 30
0.0
 70
     1
  0
VERTEX
  5
379
  8
LAYER_1
 10
85.0
 20
394.9999999999939
 30
0.0
 42
0.4142135623730951
  0
VERTEX
  5
37A
  8
LAYER_1
 10
95.0
 20
384.9999999999939
 30
0.0
  0
VERTEX
  5
37B
  8
LAYER_1
 10
225.0
 20
384.9999999999939
 30
0.0
 42
0.4142135623730951
  0
VERTEX
  5
37C
  8
LAYER_1
 10
235.0
 20
394.9999999999939
 30
0.0
  0
VERTEX
  5
37D
  8
LAYER_1
 10
235.0
 20
444.9999999999939
 30
0.0
 42
0.4142135623730951
  0
VERTEX
  5
37E
  8
LAYER_1
 10
225.0
 20
454.9999999999939
 30
0.0
  0
VERTEX
  5
37F
  8
LAYER_1
 10
95.0
 20
454.9999999999939
 30
0.0
 42
0.4142135623730951
  0
VERTEX
  5
380
  8
LAYER_1
 10
85.0
 20
444.9999999999939
 30
0.0
  0
SEQEND
  5
381
  8
LAYER_1
  0
POLYLINE
  5
79
  8
LAYER_1
 66
     1
 10
0.0
 20
0.0
 30
0.0
 70
     1
  0
VERTEX
  5
382
  8
LAYER_1
 10
261.3
 20
327.5061425061389
 30
0.0
 42
-0.4142135623730951
  0
VERTEX
  5
383
  8
LAYER_1
 10
264.3
 20
324.5061425061389
 30
0.0
  0
VERTEX
  5
384
  8
LAYER_1
 10
264.3
 20
316.5061425061389
 30
0.0
  0
VERTEX
  5
385
  8
LAYER_1
 10
264.3
 20
168.506142506139
 30
0.0
  0
VERTEX
  5
386
  8
LAYER_1
 10
264.3
 20
160.506142506139
 30
0.0
 42
-0.4142135623730951
  0
VERTEX
  5
387
  8
LAYER_1
 10
261.3
 20
157.506142506139
 30
0.0
  0
VERTEX
  5
388
  8
LAYER_1
 10
257.3
 20
157.506142506139
 30
0.0
 42
-0.4142135623730951
  0
VERTEX
  5
389
  8
LAYER_1
 10
254.3
 20
160.506142506139
 30
0.0
  0
VERTEX
  5
38A
  8
LAYER_1
 10
254.3
 20
168.506142506139
 30
0.0
  0
VERTEX
  5
38B
  8
LAYER_1
 10
71.5
 20
168.506142506139
 30
0.0
  0
VERTEX
  5
38C
  8
LAYER_1
 10
71.5
 20
160.506142506139
 30
0.0
 42
-0.4142135623730951
  0
VERTEX
  5
38D
  8
LAYER_1
 10
68.5
 20
157.506142506139
 30
0.0
  0
VERTEX
  5
38E
  8
LAYER_1
 10
64.5
 20
157.506142506139
 30
0.0
 42
-0.4142135623730951
  0
VERTEX
  5
38F
  8
LAYER_1
 10
61.5
 20
160.506142506139
 30
0.0
  0
VERTEX
  5
390
  8
LAYER_1
 10
61.5
 20
168.506142506139
 30
0.0
  0
VERTEX
  5
391
  8
LAYER_1
 10
-61.5
 20
168.506142506139
 30
0.0
  0
VERTEX
  5
392
  8
LAYER_1
 10
-61.5
 20
316.5061425061389
 30
0.0
  0
VERTEX
  5
393
  8
LAYER_1
 10
61.5
 20
316.5061425061389
 30
0.0
  0
VERTEX
  5
394
  8
LAYER_1
 10
61.5
 20
324.5061425061389
 30
0.0
 42
-0.4142135623730951
  0
VERTEX
  5
395
  8
LAYER_1
 10
64.5
 20
327.5061425061389
 30
0.0
  0
VERTEX
  5
396
  8
LAYER_1
 10
68.5
 20
327.5061425061389
 30
0.0
 42
-0.4142135623730951
  0
VERTEX
  5
397
  8
LAYER_1
 10
71.5
 20
324.5061425061389
 30
0.0
  0
VERTEX
  5
398
  8
LAYER_1
 10
71.5
 20
316.5061425061389
 30
0.0
  0
VERTEX
  5
399
  8
LAYER_1
 10
254.3
 20
316.5061425061389
 30
0.0
  0
VERTEX
  5
39A
  8
LAYER_1
 10
254.3
 20
324.5061425061389
 30
0.0
 42
-0.4142135623730951
  0
VERTEX
  5
39B
  8
LAYER_1
 10
257.3
 20
327.5061425061389
 30
0.0
  0
SEQEND
  5
39C
  8
LAYER_1
  0
POLYLINE
  5
7A
  8
LAYER_1
 66
     1
 10
0.0
 20
0.0
 30
0.0
 70
     1
  0
VERTEX
  5
39D
  8
LAYER_1
 10
261.3
 20
504.9999999999939
 30
0.0
 42
-0.4142135623730951
  0
VERTEX
  5
39E
  8
LAYER_1
 10
264.3
 20
501.9999999999939
 30
0.0
  0
VERTEX
  5
39F
  8
LAYER_1
 10
264.3
 20
493.9999999999939
 30
0.0
  0
VERTEX
  5
3A0
  8
LAYER_1
 10
264.3
 20
345.9999999999939
 30
0.0
  0
VERTEX
  5
3A1
  8
LAYER_1
 10
264.3
 20
337.9999999999939
 30
0.0
 42
-0.4142135623730951
  0
VERTEX
  5
3A2
  8
LAYER_1
 10
261.3
 20
334.9999999999939
 30
0.0
  0
VERTEX
  5
3A3
  8
LAYER_1
 10
257.3
 20
334.9999999999939
 30
0.0
 42
-0.4142135623730951
  0
VERTEX
  5
3A4
  8
LAYER_1
 10
254.3
 20
337.9999999999939
 30
0.0
  0
VERTEX
  5
3A5
  8
LAYER_1
 10
254.3
 20
345.9999999999939
 30
0.0
  0
VERTEX
  5
3A6
  8
LAYER_1
 10
235.0
 20
345.9999999999939
 30
0.0
  0
VERTEX
  5
3A7
  8
LAYER_1
 10
235.0
 20
356.0452724520824
 30
0.0
  0
VERTEX
  5
3A8
  8
LAYER_1
 10
234.9869880620527
 20
356.1851778110949
 30
0.0
  0
VERTEX
  5
3A9
  8
LAYER_1
 10
234.9483711273007
 20
356.3232465506351
 30
0.0
  0
VERTEX
  5
3AA
  8
LAYER_1
 10
234.8847775143792
 20
356.4593078479846
 30
0.0
  0
VERTEX
  5
3AB
  8
LAYER_1
 10
234.7968355419228
 20
356.5931908804252
 30
0.0
  0
VERTEX
  5
3AC
  8
LAYER_1
 10
234.6851735285667
 20
356.7247248252388
 30
0.0
  0
VERTEX
  5
3AD
  8
LAYER_1
 10
234.5504197929458
 20
356.8537388597073
 30
0.0
  0
VERTEX
  5
3AE
  8
LAYER_1
 10
234.3932026536951
 20
356.9800621611125
 30
0.0
  0
VERTEX
  5
3AF
  8
LAYER_1
 10
234.2141504294495
 20
357.1035239067361
 30
0.0
  0
VERTEX
  5
3B0
  8
LAYER_1
 10
234.0138914388441
 20
357.22395327386
 30
0.0
  0
VERTEX
  5
3B1
  8
LAYER_1
 10
233.7930540005137
 20
357.3411794397661
 30
0.0
  0
VERTEX
  5
3B2
  8
LAYER_1
 10
233.5522664330933
 20
357.455031581736
 30
0.0
  0
VERTEX
  5
3B3
  8
LAYER_1
 10
233.2921570552179
 20
357.5653388770518
 30
0.0
  0
VERTEX
  5
3B4
  8
LAYER_1
 10
233.0133541855225
 20
357.6719305029951
 30
0.0
  0
VERTEX
  5
3B5
  8
LAYER_1
 10
232.7164861426419
 20
357.774635636848
 30
0.0
  0
VERTEX
  5
3B6
  8
LAYER_1
 10
232.4021812452113
 20
357.8732834558921
 30
0.0
  0
VERTEX
  5
3B7
  8
LAYER_1
 10
232.0710678118655
 20
357.9677031374093
 30
0.0
  0
VERTEX
  5
3B8
  8
LAYER_1
 10
231.7237741612395
 20
358.0577238586814
 30
0.0
  0
VERTEX
  5
3B9
  8
LAYER_1
 10
231.3609286119682
 20
358.1431747969902
 30
0.0
  0
VERTEX
  5
3BA
  8
LAYER_1
 10
230.9831594826867
 20
358.2238851296175
 30
0.0
  0
VERTEX
  5
3BB
  8
LAYER_1
 10
230.5910950920298
 20
358.2996840338453
 30
0.0
  0
VERTEX
  5
3BC
  8
LAYER_1
 10
229.7665938011301
 20
358.4358642662294
 30
0.0
  0
VERTEX
  5
3BD
  8
LAYER_1
 10
228.8924512883486
 20
358.5503489123969
 30
0.0
  0
VERTEX
  5
3BE
  8
LAYER_1
 10
227.9736941027652
 20
358.6417713906025
 30
0.0
  0
VERTEX
  5
3BF
  8
LAYER_1
 10
227.0153487934595
 20
358.7087651191008
 30
0.0
  0
VERTEX
  5
3C0
  8
LAYER_1
 10
226.0224419095112
 20
358.7499635161464
 30
0.0
  0
VERTEX
  5
3C1
  8
LAYER_1
 10
225.0
 20
358.7639999999939
 30
0.0
  0
VERTEX
  5
3C2
  8
LAYER_1
 10
95.0
 20
358.7639999999939
 30
0.0
  0
VERTEX
  5
3C3
  8
LAYER_1
 10
93.9775580904888
 20
358.7499635161464
 30
0.0
  0
VERTEX
  5
3C4
  8
LAYER_1
 10
92.98465120654049
 20
358.7087651191008
 30
0.0
  0
VERTEX
  5
3C5
  8
LAYER_1
 10
92.02630589723476
 20
358.6417713906025
 30
0.0
  0
VERTEX
  5
3C6
  8
LAYER_1
 10
91.10754871165133
 20
358.5503489123969
 30
0.0
  0
VERTEX
  5
3C7
  8
LAYER_1
 10
90.23340619886989
 20
358.4358642662294
 30
0.0
  0
VERTEX
  5
3C8
  8
LAYER_1
 10
89.40890490797014
 20
358.2996840338453
 30
0.0
  0
VERTEX
  5
3C9
  8
LAYER_1
 10
89.0168405173133
 20
358.2238851296175
 30
0.0
  0
VERTEX
  5
3CA
  8
LAYER_1
 10
88.63907138803178
 20
358.1431747969902
 30
0.0
  0
VERTEX
  5
3CB
  8
LAYER_1
 10
88.27622583876054
 20
358.0577238586814
 30
0.0
  0
VERTEX
  5
3CC
  8
LAYER_1
 10
87.92893218813452
 20
357.9677031374093
 30
0.0
  0
VERTEX
  5
3CD
  8
LAYER_1
 10
87.59781875478872
 20
357.8732834558921
 30
0.0
  0
VERTEX
  5
3CE
  8
LAYER_1
 10
87.28351385735806
 20
357.774635636848
 30
0.0
  0
VERTEX
  5
3CF
  8
LAYER_1
 10
86.98664581447753
 20
357.6719305029951
 30
0.0
  0
VERTEX
  5
3D0
  8
LAYER_1
 10
86.70784294478209
 20
357.5653388770518
 30
0.0
  0
VERTEX
  5
3D1
  8
LAYER_1
 10
86.44773356690669
 20
357.455031581736
 30
0.0
  0
VERTEX
  5
3D2
  8
LAYER_1
 10
86.20694599948632
 20
357.3411794397661
 30
0.0
  0
VERTEX
  5
3D3
  8
LAYER_1
 10
85.9861085611559
 20
357.22395327386
 30
0.0
  0
VERTEX
  5
3D4
  8
LAYER_1
 10
85.78584957055044
 20
357.1035239067361
 30
0.0
  0
VERTEX
  5
3D5
  8
LAYER_1
 10
85.60679734630487
 20
356.9800621611125
 30
0.0
  0
VERTEX
  5
3D6
  8
LAYER_1
 10
85.44958020705418
 20
356.8537388597073
 30
0.0
  0
VERTEX
  5
3D7
  8
LAYER_1
 10
85.3148264714333
 20
356.7247248252388
 30
0.0
  0
VERTEX
  5
3D8
  8
LAYER_1
 10
85.20316445807723
 20
356.5931908804252
 30
0.0
  0
VERTEX
  5
3D9
  8
LAYER_1
 10
85.11522248562089
 20
356.4593078479846
 30
0.0
  0
VERTEX
  5
3DA
  8
LAYER_1
 10
85.05162887269925
 20
356.3232465506351
 30
0.0
  0
VERTEX
  5
3DB
  8
LAYER_1
 10
85.01301193794731
 20
356.1851778110949
 30
0.0
  0
VERTEX
  5
3DC
  8
LAYER_1
 10
85.0
 20
356.0452724520824
 30
0.0
  0
VERTEX
  5
3DD
  8
LAYER_1
 10
85.0
 20
345.9999999999939
 30
0.0
  0
VERTEX
  5
3DE
  8
LAYER_1
 10
71.5
 20
345.9999999999939
 30
0.0
  0
VERTEX
  5
3DF
  8
LAYER_1
 10
71.5
 20
337.9999999999939
 30
0.0
 42
-0.4142135623730951
  0
VERTEX
  5
3E0
  8
LAYER_1
 10
68.5
 20
334.9999999999939
 30
0.0
  0
VERTEX
  5
3E1
  8
LAYER_1
 10
64.5
 20
334.9999999999939
 30
0.0
 42
-0.4142135623730951
  0
VERTEX
  5
3E2
  8
LAYER_1
 10
61.5
 20
337.9999999999939
 30
0.0
  0
VERTEX
  5
3E3
  8
LAYER_1
 10
61.5
 20
345.9999999999939
 30
0.0
  0
VERTEX
  5
3E4
  8
LAYER_1
 10
-61.5
 20
345.9999999999939
 30
0.0
  0
VERTEX
  5
3E5
  8
LAYER_1
 10
-61.5
 20
493.9999999999939
 30
0.0
  0
VERTEX
  5
3E6
  8
LAYER_1
 10
61.5
 20
493.9999999999939
 30
0.0
  0
VERTEX
  5
3E7
  8
LAYER_1
 10
61.5
 20
501.9999999999939
 30
0.0
 42
-0.4142135623730951
  0
VERTEX
  5
3E8
  8
LAYER_1
 10
64.5
 20
504.9999999999939
 30
0.0
  0
VERTEX
  5
3E9
  8
LAYER_1
 10
68.5
 20
504.9999999999939
 30
0.0
 42
-0.4142135623730951
  0
VERTEX
  5
3EA
  8
LAYER_1
 10
71.5
 20
501.9999999999939
 30
0.0
  0
VERTEX
  5
3EB
  8
LAYER_1
 10
71.5
 20
493.9999999999939
 30
0.0
  0
VERTEX
  5
3EC
  8
LAYER_1
 10
85.0
 20
493.9999999999939
 30
0.0
  0
VERTEX
  5
3ED
  8
LAYER_1
 10
85.0
 20
483.9551961121302
 30
0.0
  0
VERTEX
  5
3EE
  8
LAYER_1
 10
85.01301193794731
 20
483.8152907531176
 30
0.0
  0
VERTEX
  5
3EF
  8
LAYER_1
 10
85.05162887269925
 20
483.6772220135774
 30
0.0
  0
VERTEX
  5
3F0
  8
LAYER_1
 10
85.11522248562089
 20
483.541160716228
 30
0.0
  0
VERTEX
  5
3F1
  8
LAYER_1
 10
85.20316445807723
 20
483.4072776837874
 30
0.0
  0
VERTEX
  5
3F2
  8
LAYER_1
 10
85.3148264714333
 20
483.2757437389737
 30
0.0
  0
VERTEX
  5
3F3
  8
LAYER_1
 10
85.44958020705418
 20
483.1467297045052
 30
0.0
  0
VERTEX
  5
3F4
  8
LAYER_1
 10
85.60679734630487
 20
483.0204064031001
 30
0.0
  0
VERTEX
  5
3F5
  8
LAYER_1
 10
85.78584957055044
 20
482.8969446574765
 30
0.0
  0
VERTEX
  5
3F6
  8
LAYER_1
 10
85.9861085611559
 20
482.7765152903526
 30
0.0
  0
VERTEX
  5
3F7
  8
LAYER_1
 10
86.20694599948632
 20
482.6592891244466
 30
0.0
  0
VERTEX
  5
3F8
  8
LAYER_1
 10
86.44773356690669
 20
482.5454369824765
 30
0.0
  0
VERTEX
  5
3F9
  8
LAYER_1
 10
86.70784294478209
 20
482.4351296871608
 30
0.0
  0
VERTEX
  5
3FA
  8
LAYER_1
 10
86.98664581447753
 20
482.3285380612174
 30
0.0
  0
VERTEX
  5
3FB
  8
LAYER_1
 10
87.28351385735806
 20
482.2258329273645
 30
0.0
  0
VERTEX
  5
3FC
  8
LAYER_1
 10
87.59781875478872
 20
482.1271851083204
 30
0.0
  0
VERTEX
  5
3FD
  8
LAYER_1
 10
87.92893218813452
 20
482.0327654268033
 30
0.0
  0
VERTEX
  5
3FE
  8
LAYER_1
 10
88.27622583876054
 20
481.9427447055313
 30
0.0
  0
VERTEX
  5
3FF
  8
LAYER_1
 10
88.63907138803178
 20
481.8572937672224
 30
0.0
  0
VERTEX
  5
400
  8
LAYER_1
 10
89.0168405173133
 20
481.776583434595
 30
0.0
  0
VERTEX
  5
401
  8
LAYER_1
 10
89.40890490797014
 20
481.7007845303672
 30
0.0
  0
VERTEX
  5
402
  8
LAYER_1
 10
90.23340619886989
 20
481.5646042979832
 30
0.0
  0
VERTEX
  5
403
  8
LAYER_1
 10
91.10754871165133
 20
481.4501196518157
 30
0.0
  0
VERTEX
  5
404
  8
LAYER_1
 10
92.02630589723476
 20
481.35869717361
 30
0.0
  0
VERTEX
  5
405
  8
LAYER_1
 10
92.98465120654049
 20
481.2917034451118
 30
0.0
  0
VERTEX
  5
406
  8
LAYER_1
 10
93.9775580904888
 20
481.2505050480662
 30
0.0
  0
VERTEX
  5
407
  8
LAYER_1
 10
95.0
 20
481.2364685642187
 30
0.0
  0
VERTEX
  5
408
  8
LAYER_1
 10
225.0
 20
481.2364685642187
 30
0.0
  0
VERTEX
  5
409
  8
LAYER_1
 10
226.0224419095112
 20
481.2505050480662
 30
0.0
  0
VERTEX
  5
40A
  8
LAYER_1
 10
227.0153487934595
 20
481.2917034451118
 30
0.0
  0
VERTEX
  5
40B
  8
LAYER_1
 10
227.9736941027652
 20
481.35869717361
 30
0.0
  0
VERTEX
  5
40C
  8
LAYER_1
 10
228.8924512883486
 20
481.4501196518157
 30
0.0
  0
VERTEX
  5
40D
  8
LAYER_1
 10
229.7665938011301
 20
481.5646042979832
 30
0.0
  0
VERTEX
  5
40E
  8
LAYER_1
 10
230.5910950920298
 20
481.7007845303672
 30
0.0
  0
VERTEX
  5
40F
  8
LAYER_1
 10
230.9831594826867
 20
481.776583434595
 30
0.0
  0
VERTEX
  5
410
  8
LAYER_1
 10
231.3609286119682
 20
481.8572937672224
 30
0.0
  0
VERTEX
  5
411
  8
LAYER_1
 10
231.7237741612395
 20
481.9427447055313
 30
0.0
  0
VERTEX
  5
412
  8
LAYER_1
 10
232.0710678118655
 20
482.0327654268033
 30
0.0
  0
VERTEX
  5
413
  8
LAYER_1
 10
232.4021812452113
 20
482.1271851083204
 30
0.0
  0
VERTEX
  5
414
  8
LAYER_1
 10
232.7164861426419
 20
482.2258329273645
 30
0.0
  0
VERTEX
  5
415
  8
LAYER_1
 10
233.0133541855225
 20
482.3285380612174
 30
0.0
  0
VERTEX
  5
416
  8
LAYER_1
 10
233.2921570552179
 20
482.4351296871608
 30
0.0
  0
VERTEX
  5
417
  8
LAYER_1
 10
233.5522664330933
 20
482.5454369824765
 30
0.0
  0
VERTEX
  5
418
  8
LAYER_1
 10
233.7930540005137
 20
482.6592891244466
 30
0.0
  0
VERTEX
  5
419
  8
LAYER_1
 10
234.0138914388441
 20
482.7765152903526
 30
0.0
  0
VERTEX
  5
41A
  8
LAYER_1
 10
234.2141504294495
 20
482.8969446574765
 30
0.0
  0
VERTEX
  5
41B
  8
LAYER_1
 10
234.3932026536951
 20
483.0204064031001
 30
0.0
  0
VERTEX
  5
41C
  8
LAYER_1
 10
234.5504197929458
 20
483.1467297045052
 30
0.0
  0
VERTEX
  5
41D
  8
LAYER_1
 10
234.6851735285667
 20
483.2757437389737
 30
0.0
  0
VERTEX
  5
41E
  8
LAYER_1
 10
234.7968355419228
 20
483.4072776837874
 30
0.0
  0
VERTEX
  5
41F
  8
LAYER_1
 10
234.8847775143792
 20
483.541160716228
 30
0.0
  0
VERTEX
  5
420
  8
LAYER_1
 10
234.9483711273007
 20
483.6772220135774
 30
0.0
  0
VERTEX
  5
421
  8
LAYER_1
 10
234.9869880620527
 20
483.8152907531176
 30
0.0
  0
VERTEX
  5
422
  8
LAYER_1
 10
235.0
 20
483.9551961121302
 30
0.0
  0
VERTEX
  5
423
  8
LAYER_1
 10
235.0
 20
493.9999999999939
 30
0.0
  0
VERTEX
  5
424
  8
LAYER_1
 10
254.3
 20
493.9999999999939
 30
0.0
  0
VERTEX
  5
425
  8
LAYER_1
 10
254.3
 20
501.9999999999939
 30
0.0
 42
-0.4142135623730951
  0
VERTEX
  5
426
  8
LAYER_1
 10
257.3
 20
504.9999999999939
 30
0.0
  0
SEQEND
  5
427
  8
LAYER_1
  0
POLYLINE
  5
7B
  8
LAYER_1
 66
     1
 10
0.0
 20
0.0
 30
0.0
 70
     1
  0
VERTEX
  5
428
  8
LAYER_1
 10
388.0560171990176
 20
249.268
 30
0.0
 42
0.4142135623730951
  0
VERTEX
  5
429
  8
LAYER_1
 10
386.5560171990176
 20
247.768
 30
0.0
 42
0.4142135623730951
  0
VERTEX
  5
42A
  8
LAYER_1
 10
388.0560171990176
 20
246.268
 30
0.0
 42
0.4142135623730951
  0
VERTEX
  5
42B
  8
LAYER_1
 10
389.5560171990176
 20
247.768
 30
0.0
 42
0.4142135623730951
  0
SEQEND
  5
42C
  8
LAYER_1
  0
POLYLINE
  5
7C
  8
LAYER_1
 66
     1
 10
0.0
 20
0.0
 30
0.0
 70
     1
  0
VERTEX
  5
42D
  8
LAYER_1
 10
467.3060171990176
 20
249.268
 30
0.0
 42
0.4142135623730951
  0
VERTEX
  5
42E
  8
LAYER_1
 10
465.8060171990176
 20
247.768
 30
0.0
 42
0.4142135623730951
  0
VERTEX
  5
42F
  8
LAYER_1
 10
467.3060171990176
 20
246.268
 30
0.0
 42
0.4142135623730951
  0
VERTEX
  5
430
  8
LAYER_1
 10
468.8060171990176
 20
247.768
 30
0.0
 42
0.4142135623730951
  0
SEQEND
  5
431
  8
LAYER_1
  0
POLYLINE
  5
7D
  8
LAYER_1
 66
     1
 10
0.0
 20
0.0
 30
0.0
 70
     1
  0
VERTEX
  5
432
  8
LAYER_1
 10
388.0560171990176
 20
237.428
 30
0.0
 42
0.4142135623730951
  0
VERTEX
  5
433
  8
LAYER_1
 10
386.5560171990176
 20
235.928
 30
0.0
 42
0.4142135623730951
  0
VERTEX
  5
434
  8
LAYER_1
 10
388.0560171990176
 20
234.428
 30
0.0
 42
0.4142135623730951
  0
VERTEX
  5
435
  8
LAYER_1
 10
389.5560171990176
 20
235.928
 30
0.0
 42
0.4142135623730951
  0
SEQEND
  5
436
  8
LAYER_1
  0
POLYLINE
  5
7E
  8
LAYER_1
 66
     1
 10
0.0
 20
0.0
 30
0.0
 70
     1
  0
VERTEX
  5
437
  8
LAYER_1
 10
467.3060171990176
 20
237.428
 30
0.0
 42
0.4142135623730951
  0
VERTEX
  5
438
  8
LAYER_1
 10
465.8060171990176
 20
235.928
 30
0.0
 42
0.4142135623730951
  0
VERTEX
  5
439
  8
LAYER_1
 10
467.3060171990176
 20
234.428
 30
0.0
 42
0.4142135623730951
  0
VERTEX
  5
43A
  8
LAYER_1
 10
468.8060171990176
 20
235.928
 30
0.0
 42
0.4142135623730951
  0
SEQEND
  5
43B
  8
LAYER_1
  0
POLYLINE
  5
7F
  8
LAYER_1
 66
     1
 10
0.0
 20
0.0
 30
0.0
 70
     1
  0
VERTEX
  5
43C
  8
LAYER_1
 10
388.0560171990176
 20
293.268
 30
0.0
 42
0.4142135623730951
  0
VERTEX
  5
43D
  8
LAYER_1
 10
386.5560171990176
 20
291.768
 30
0.0
 42
0.4142135623730951
  0
VERTEX
  5
43E
  8
LAYER_1
 10
388.0560171990176
 20
290.268
 30
0.0
 42
0.4142135623730951
  0
VERTEX
  5
43F
  8
LAYER_1
 10
389.5560171990176
 20
291.768
 30
0.0
 42
0.4142135623730951
  0
SEQEND
  5
440
  8
LAYER_1
  0
POLYLINE
  5
80
  8
LAYER_1
 66
     1
 10
0.0
 20
0.0
 30
0.0
 70
     1
  0
VERTEX
  5
441
  8
LAYER_1
 10
467.3060171990176
 20
293.268
 30
0.0
 42
0.4142135623730951
  0
VERTEX
  5
442
  8
LAYER_1
 10
465.8060171990176
 20
291.768
 30
0.0
 42
0.4142135623730951
  0
VERTEX
  5
443
  8
LAYER_1
 10
467.3060171990176
 20
290.268
 30
0.0
 42
0.4142135623730951
  0
VERTEX
  5
444
  8
LAYER_1
 10
468.8060171990176
 20
291.768
 30
0.0
 42
0.4142135623730951
  0
SEQEND
  5
445
  8
LAYER_1
  0
POLYLINE
  5
81
  8
LAYER_1
 66
     1
 10
0.0
 20
0.0
 30
0.0
 70
     1
  0
VERTEX
  5
446
  8
LAYER_1
 10
388.0560171990176
 20
281.428
 30
0.0
 42
0.4142135623730951
  0
VERTEX
  5
447
  8
LAYER_1
 10
386.5560171990176
 20
279.928
 30
0.0
 42
0.4142135623730951
  0
VERTEX
  5
448
  8
LAYER_1
 10
388.0560171990176
 20
278.428
 30
0.0
 42
0.4142135623730951
  0
VERTEX
  5
449
  8
LAYER_1
 10
389.5560171990176
 20
279.928
 30
0.0
 42
0.4142135623730951
  0
SEQEND
  5
44A
  8
LAYER_1
  0
POLYLINE
  5
82
  8
LAYER_1
 66
     1
 10
0.0
 20
0.0
 30
0.0
 70
     1
  0
VERTEX
  5
44B
  8
LAYER_1
 10
467.3060171990176
 20
281.428
 30
0.0
 42
0.4142135623730951
  0
VERTEX
  5
44C
  8
LAYER_1
 10
465.8060171990176
 20
279.928
 30
0.0
 42
0.4142135623730951
  0
VERTEX
  5
44D
  8
LAYER_1
 10
467.3060171990176
 20
278.428
 30
0.0
 42
0.4142135623730951
  0
VERTEX
  5
44E
  8
LAYER_1
 10
468.8060171990176
 20
279.928
 30
0.0
 42
0.4142135623730951
  0
SEQEND
  5
44F
  8
LAYER_1
  0
POLYLINE
  5
83
  8
LAYER_1
 66
     1
 10
0.0
 20
0.0
 30
0.0
 70
     1
  0
VERTEX
  5
450
  8
LAYER_1
 10
382.6810171990176
 20
236.348
 30
0.0
 42
0.4142135623730951
  0
VERTEX
  5
451
  8
LAYER_1
 10
387.6810171990176
 20
231.348
 30
0.0
  0
VERTEX
  5
452
  8
LAYER_1
 10
467.6810171990176
 20
231.348
 30
0.0
 42
0.4142135623730951
  0
VERTEX
  5
453
  8
LAYER_1
 10
472.6810171990176
 20
236.348
 30
0.0
  0
VERTEX
  5
454
  8
LAYER_1
 10
472.6810171990176
 20
291.348
 30
0.0
 42
0.4142135623730951
  0
VERTEX
  5
455
  8
LAYER_1
 10
467.6810171990176
 20
296.348
 30
0.0
  0
VERTEX
  5
456
  8
LAYER_1
 10
387.6810171990176
 20
296.348
 30
0.0
 42
0.4142135623730951
  0
VERTEX
  5
457
  8
LAYER_1
 10
382.6810171990176
 20
291.348
 30
0.0
  0
SEQEND
  5
458
  8
LAYER_1
  0
POLYLINE
  5
84
  8
LAYER_1
 66
     1
 10
0.0
 20
0.0
 30
0.0
 70
     1
  0
VERTEX
  5
459
  8
LAYER_1
 10
388.0560171990176
 20
181.6387125307135
 30
0.0
 42
0.4142135623730951
  0
VERTEX
  5
45A
  8
LAYER_1
 10
386.5560171990176
 20
180.1387125307135
 30
0.0
 42
0.4142135623730951
  0
VERTEX
  5
45B
  8
LAYER_1
 10
388.0560171990176
 20
178.6387125307135
 30
0.0
 42
0.4142135623730951
  0
VERTEX
  5
45C
  8
LAYER_1
 10
389.5560171990176
 20
180.1387125307135
 30
0.0
 42
0.4142135623730951
  0
SEQEND
  5
45D
  8
LAYER_1
  0
POLYLINE
  5
85
  8
LAYER_1
 66
     1
 10
0.0
 20
0.0
 30
0.0
 70
     1
  0
VERTEX
  5
45E
  8
LAYER_1
 10
467.3060171990176
 20
181.6387125307135
 30
0.0
 42
0.4142135623730951
  0
VERTEX
  5
45F
  8
LAYER_1
 10
465.8060171990176
 20
180.1387125307135
 30
0.0
 42
0.4142135623730951
  0
VERTEX
  5
460
  8
LAYER_1
 10
467.3060171990176
 20
178.6387125307135
 30
0.0
 42
0.4142135623730951
  0
VERTEX
  5
461
  8
LAYER_1
 10
468.8060171990176
 20
180.1387125307135
 30
0.0
 42
0.4142135623730951
  0
SEQEND
  5
462
  8
LAYER_1
  0
POLYLINE
  5
86
  8
LAYER_1
 66
     1
 10
0.0
 20
0.0
 30
0.0
 70
     1
  0
VERTEX
  5
463
  8
LAYER_1
 10
388.0560171990176
 20
169.7987125307135
 30
0.0
 42
0.4142135623730951
  0
VERTEX
  5
464
  8
LAYER_1
 10
386.5560171990176
 20
168.2987125307135
 30
0.0
 42
0.4142135623730951
  0
VERTEX
  5
465
  8
LAYER_1
 10
388.0560171990176
 20
166.7987125307135
 30
0.0
 42
0.4142135623730951
  0
VERTEX
  5
466
  8
LAYER_1
 10
389.5560171990176
 20
168.2987125307135
 30
0.0
 42
0.4142135623730951
  0
SEQEND
  5
467
  8
LAYER_1
  0
POLYLINE
  5
87
  8
LAYER_1
 66
     1
 10
0.0
 20
0.0
 30
0.0
 70
     1
  0
VERTEX
  5
468
  8
LAYER_1
 10
467.3060171990176
 20
169.7987125307135
 30
0.0
 42
0.4142135623730951
  0
VERTEX
  5
469
  8
LAYER_1
 10
465.8060171990176
 20
168.2987125307135
 30
0.0
 42
0.4142135623730951
  0
VERTEX
  5
46A
  8
LAYER_1
 10
467.3060171990176
 20
166.7987125307135
 30
0.0
 42
0.4142135623730951
  0
VERTEX
  5
46B
  8
LAYER_1
 10
468.8060171990176
 20
168.2987125307135
 30
0.0
 42
0.4142135623730951
  0
SEQEND
  5
46C
  8
LAYER_1
  0
POLYLINE
  5
88
  8
LAYER_1
 66
     1
 10
0.0
 20
0.0
 30
0.0
 70
     1
  0
VERTEX
  5
46D
  8
LAYER_1
 10
388.0560171990176
 20
225.6387125307136
 30
0.0
 42
0.4142135623730951
  0
VERTEX
  5
46E
  8
LAYER_1
 10
386.5560171990176
 20
224.1387125307136
 30
0.0
 42
0.4142135623730951
  0
VERTEX
  5
46F
  8
LAYER_1
 10
388.0560171990176
 20
222.6387125307136
 30
0.0
 42
0.4142135623730951
  0
VERTEX
  5
470
  8
LAYER_1
 10
389.5560171990176
 20
224.1387125307136
 30
0.0
 42
0.4142135623730951
  0
SEQEND
  5
471
  8
LAYER_1
  0
POLYLINE
  5
89
  8
LAYER_1
 66
     1
 10
0.0
 20
0.0
 30
0.0
 70
     1
  0
VERTEX
  5
472
  8
LAYER_1
 10
467.3060171990176
 20
225.6387125307136
 30
0.0
 42
0.4142135623730951
  0
VERTEX
  5
473
  8
LAYER_1
 10
465.8060171990176
 20
224.1387125307136
 30
0.0
 42
0.4142135623730951
  0
VERTEX
  5
474
  8
LAYER_1
 10
467.3060171990176
 20
222.6387125307136
 30
0.0
 42
0.4142135623730951
  0
VERTEX
  5
475
  8
LAYER_1
 10
468.8060171990176
 20
224.1387125307136
 30
0.0
 42
0.4142135623730951
  0
SEQEND
  5
476
  8
LAYER_1
  0
POLYLINE
  5
8A
  8
LAYER_1
 66
     1
 10
0.0
 20
0.0
 30
0.0
 70
     1
  0
VERTEX
  5
477
  8
LAYER_1
 10
388.0560171990176
 20
213.7987125307136
 30
0.0
 42
0.4142135623730951
  0
VERTEX
  5
478
  8
LAYER_1
 10
386.5560171990176
 20
212.2987125307135
 30
0.0
 42
0.4142135623730951
  0
VERTEX
  5
479
  8
LAYER_1
 10
388.0560171990176
 20
210.7987125307135
 30
0.0
 42
0.4142135623730951
  0
VERTEX
  5
47A
  8
LAYER_1
 10
389.5560171990176
 20
212.2987125307135
 30
0.0
 42
0.4142135623730951
  0
SEQEND
  5
47B
  8
LAYER_1
  0
POLYLINE
  5
8B
  8
LAYER_1
 66
     1
 10
0.0
 20
0.0
 30
0.0
 70
     1
  0
VERTEX
  5
47C
  8
LAYER_1
 10
467.3060171990176
 20
213.7987125307136
 30
0.0
 42
0.4142135623730951
  0
VERTEX
  5
47D
  8
LAYER_1
 10
465.8060171990176
 20
212.2987125307135
 30
0.0
 42
0.4142135623730951
  0
VERTEX
  5
47E
  8
LAYER_1
 10
467.3060171990176
 20
210.7987125307135
 30
0.0
 42
0.4142135623730951
  0
VERTEX
  5
47F
  8
LAYER_1
 10
468.8060171990176
 20
212.2987125307135
 30
0.0
 42
0.4142135623730951
  0
SEQEND
  5
480
  8
LAYER_1
  0
POLYLINE
  5
8C
  8
LAYER_1
 66
     1
 10
0.0
 20
0.0
 30
0.0
 70
     1
  0
VERTEX
  5
481
  8
LAYER_1
 10
382.6810171990176
 20
168.7187125307135
 30
0.0
 42
0.4142135623730951
  0
VERTEX
  5
482
  8
LAYER_1
 10
387.6810171990176
 20
163.7187125307135
 30
0.0
  0
VERTEX
  5
483
  8
LAYER_1
 10
467.6810171990176
 20
163.7187125307135
 30
0.0
 42
0.4142135623730951
  0
VERTEX
  5
484
  8
LAYER_1
 10
472.6810171990176
 20
168.7187125307135
 30
0.0
  0
VERTEX
  5
485
  8
LAYER_1
 10
472.6810171990176
 20
223.7187125307136
 30
0.0
 42
0.4142135623730951
  0
VERTEX
  5
486
  8
LAYER_1
 10
467.6810171990176
 20
228.7187125307136
 30
0.0
  0
VERTEX
  5
487
  8
LAYER_1
 10
387.6810171990176
 20
228.7187125307136
 30
0.0
 42
0.4142135623730951
  0
VERTEX
  5
488
  8
LAYER_1
 10
382.6810171990176
 20
223.7187125307136
 30
0.0
  0
SEQEND
  5
489
  8
LAYER_1
  0
ENDSEC
  0
EOF
